<svg width="47" height="22" viewBox="0 0 47 22" fill="none" xmlns="http://www.w3.org/2000/svg">
    <g clip-path="url(#clip0_166_190)">
        <path fill-rule="evenodd" clip-rule="evenodd"
            d="M11.0588 0C4.9512 0 0 4.92486 0 11C0 17.0752 4.9512 22 11.0588 22H35.9412C42.0488 22 47 17.0752 47 11C47 4.92486 42.0488 0 35.9412 0H11.0588ZM5.52941 11C5.52941 7.96243 8.00501 5.5 11.0588 5.5H35.9412C38.9949 5.5 41.4706 7.96243 41.4706 11C41.4706 14.0375 38.9949 16.5 35.9412 16.5H11.0588C8.00501 16.5 5.52941 14.0375 5.52941 11ZM8.29412 11C8.29412 9.48122 9.53192 8.25 11.0588 8.25H35.4386C36.9654 8.25 38.2033 9.48122 38.2033 11C38.2033 12.5188 36.9654 13.75 35.4386 13.75H11.0588C9.53192 13.75 8.29412 12.5188 8.29412 11Z"
            fill="url(#paint0_linear_166_190)" />
    </g>
    <defs>
        <linearGradient id="paint0_linear_166_190" x1="23.5" y1="0" x2="23.5" y2="22"
            gradientUnits="userSpaceOnUse">
            <stop stop-color="#717171" />
            <stop offset="0.395" stop-color="#535455" />
            <stop offset="1" stop-color="#25282C" />
        </linearGradient>
        <clipPath id="clip0_166_190">
            <rect width="47" height="22" fill="white" />
        </clipPath>
    </defs>
</svg>