<svg width="36" height="36" viewBox="0 0 36 36" fill="none" xmlns="http://www.w3.org/2000/svg">
    <g clip-path="url(#clip0_380_1629)">
        <path fill-rule="evenodd" clip-rule="evenodd"
            d="M8.47059 9C3.79241 9 0 12.7722 0 17.4255C0 22.0788 3.79241 25.8511 8.47059 25.8511H27.5294C32.2076 25.8511 36 22.0788 36 17.4255C36 12.7722 32.2076 9 27.5294 9H8.47059ZM4.23529 17.4255C4.23529 15.0989 6.1315 13.2128 8.47059 13.2128H27.5294C29.8685 13.2128 31.7647 15.0989 31.7647 17.4255C31.7647 19.7521 29.8685 21.6383 27.5294 21.6383H8.47059C6.1315 21.6383 4.23529 19.7521 4.23529 17.4255ZM6.35294 17.4255C6.35294 16.2622 7.30104 15.3191 8.47059 15.3191H27.1444C28.3139 15.3191 29.2621 16.2622 29.2621 17.4255C29.2621 18.5889 28.3139 19.5319 27.1444 19.5319H8.47059C7.30104 19.5319 6.35294 18.5889 6.35294 17.4255Z"
            fill="#0A0D12" />
    </g>
    <defs>
        <clipPath id="clip0_380_1629">
            <rect width="36" height="16.8511" fill="white" transform="translate(0 9)" />
        </clipPath>
    </defs>
</svg>