<svg width="440" height="253" viewBox="0 0 440 253" fill="none" xmlns="http://www.w3.org/2000/svg">
    <g clip-path="url(#clip0_2_686)">
        <rect width="440" height="253" fill="#F4F4F5" />
        <rect x="90.5" y="63.5" width="258" height="126" rx="5.5" fill="white" stroke="#E9EAEB" />
        <line x1="91" y1="98.5" x2="348" y2="98.5" stroke="#E9EAEB" />
        <line x1="91" y1="153.5" x2="348" y2="153.5" stroke="#E9EAEB" />
        <rect x="128" y="79" width="158" height="3" rx="1.5" fill="#D9D9D9" />
        <path d="M103 78.5L108 83.5L113 78.5" stroke="#808080" stroke-width="2"
            stroke-linecap="round" stroke-linejoin="round" />
        <rect x="128" y="115" width="175" height="3" rx="1.5" fill="#D9D9D9" />
        <rect x="128" y="124" width="116" height="3" rx="1.5" fill="#EEEEEE" />
        <rect x="128" y="132" width="132" height="3" rx="1.5" fill="#EEEEEE" />
        <rect x="128" y="140" width="94" height="3" rx="1.5" fill="#EEEEEE" />
        <path d="M113 119.5L108 114.5L103 119.5" stroke="#808080" stroke-width="2"
            stroke-linecap="round" stroke-linejoin="round" />
        <rect x="128" y="171" width="147" height="3" rx="1.5" fill="#D9D9D9" />
        <path d="M103 169.5L108 174.5L113 169.5" stroke="#808080" stroke-width="2"
            stroke-linecap="round" stroke-linejoin="round" />
        <rect x="440" y="52" width="1" height="440" transform="rotate(90 440 52)"
            fill="url(#paint0_linear_2_686)" />
        <circle cx="79.5" cy="52.5" r="8" stroke="#DFDFDF" stroke-opacity="0.5" />
        <circle cx="359.5" cy="52.5" r="8" stroke="#DFDFDF" stroke-opacity="0.5" />
        <rect x="440" y="200" width="1" height="440" transform="rotate(90 440 200)"
            fill="url(#paint1_linear_2_686)" />
        <circle cx="79.5" cy="200.5" r="8" stroke="#DFDFDF" stroke-opacity="0.5" />
        <circle cx="359.5" cy="200.5" r="8" stroke="#DFDFDF" stroke-opacity="0.5" />
        <rect x="359" width="1" height="253" fill="url(#paint2_linear_2_686)" />
        <rect x="79" width="1" height="253" fill="url(#paint3_linear_2_686)" />
    </g>
    <defs>
        <linearGradient id="paint0_linear_2_686" x1="440.5" y1="52" x2="440.5" y2="492"
            gradientUnits="userSpaceOnUse">
            <stop stop-color="#F5F5F5" />
            <stop offset="0.5" stop-color="#DFDFDF" />
            <stop offset="1" stop-color="#F5F5F5" />
        </linearGradient>
        <linearGradient id="paint1_linear_2_686" x1="440.5" y1="200" x2="440.5" y2="640"
            gradientUnits="userSpaceOnUse">
            <stop stop-color="#F5F5F5" />
            <stop offset="0.5" stop-color="#DFDFDF" />
            <stop offset="1" stop-color="#F5F5F5" />
        </linearGradient>
        <linearGradient id="paint2_linear_2_686" x1="359.5" y1="0" x2="359.5" y2="253"
            gradientUnits="userSpaceOnUse">
            <stop stop-color="#F5F5F5" />
            <stop offset="0.5" stop-color="#DFDFDF" />
            <stop offset="1" stop-color="#F5F5F5" />
        </linearGradient>
        <linearGradient id="paint3_linear_2_686" x1="79.5" y1="0" x2="79.5" y2="253"
            gradientUnits="userSpaceOnUse">
            <stop stop-color="#F5F5F5" />
            <stop offset="0.5" stop-color="#DFDFDF" />
            <stop offset="1" stop-color="#F5F5F5" />
        </linearGradient>
        <clipPath id="clip0_2_686">
            <rect width="440" height="253" fill="white" />
        </clipPath>
    </defs>
</svg>