<svg width="440" height="253" viewBox="0 0 440 253" fill="none" xmlns="http://www.w3.org/2000/svg">
    <g clip-path="url(#clip0_307_297)">
        <rect width="440" height="253" fill="#F4F4F5" />
        <rect x="181" width="1" height="253" fill="url(#paint0_linear_307_297)" />
        <rect x="258" width="1" height="253" fill="url(#paint1_linear_307_297)" />
        <circle cx="181.5" cy="86.5" r="8" stroke="#DFDFDF" stroke-opacity="0.5" />
        <rect x="440" y="86" width="1" height="440" transform="rotate(90 440 86)"
            fill="url(#paint2_linear_307_297)" />
        <path
            d="M220 97.5C235.188 97.5 247.5 109.812 247.5 125C247.5 140.188 235.188 152.5 220 152.5C204.812 152.5 192.5 140.188 192.5 125C192.5 109.812 204.812 97.5 220 97.5Z"
            fill="#D5D5D5" />
        <path
            d="M220 97.5C235.188 97.5 247.5 109.812 247.5 125C247.5 140.188 235.188 152.5 220 152.5C204.812 152.5 192.5 140.188 192.5 125C192.5 109.812 204.812 97.5 220 97.5Z"
            stroke="#E9EAEB" />
        <path
            d="M230.667 137C230.667 135.139 230.667 134.209 230.437 133.452C229.92 131.747 228.586 130.413 226.882 129.896C226.124 129.667 225.194 129.667 223.333 129.667H216.667C214.806 129.667 213.876 129.667 213.118 129.896C211.414 130.413 210.08 131.747 209.563 133.452C209.333 134.209 209.333 135.139 209.333 137M226 119C226 122.314 223.314 125 220 125C216.686 125 214 122.314 214 119C214 115.686 216.686 113 220 113C223.314 113 226 115.686 226 119Z"
            stroke="#636363" stroke-width="2.67" stroke-linecap="round" stroke-linejoin="round" />
        <path
            d="M241 138.25C245.28 138.25 248.75 141.72 248.75 146C248.75 150.28 245.28 153.75 241 153.75C236.72 153.75 233.25 150.28 233.25 146C233.25 141.72 236.72 138.25 241 138.25Z"
            fill="#17B26A" />
        <path
            d="M241 138.25C245.28 138.25 248.75 141.72 248.75 146C248.75 150.28 245.28 153.75 241 153.75C236.72 153.75 233.25 150.28 233.25 146C233.25 141.72 236.72 138.25 241 138.25Z"
            stroke="white" stroke-width="1.5" />
        <circle cx="181.5" cy="165.5" r="8" stroke="#DFDFDF" stroke-opacity="0.5" />
        <circle cx="258.5" cy="165.5" r="8" stroke="#DFDFDF" stroke-opacity="0.5" />
        <rect x="440" y="165" width="1" height="440" transform="rotate(90 440 165)"
            fill="url(#paint3_linear_307_297)" />
        <circle cx="258.5" cy="86.5" r="8" stroke="#DFDFDF" stroke-opacity="0.5" />
    </g>
    <defs>
        <linearGradient id="paint0_linear_307_297" x1="181.5" y1="0" x2="181.5" y2="253"
            gradientUnits="userSpaceOnUse">
            <stop stop-color="#F5F5F5" />
            <stop offset="0.5" stop-color="#DFDFDF" />
            <stop offset="1" stop-color="#F5F5F5" />
        </linearGradient>
        <linearGradient id="paint1_linear_307_297" x1="258.5" y1="0" x2="258.5" y2="253"
            gradientUnits="userSpaceOnUse">
            <stop stop-color="#F5F5F5" />
            <stop offset="0.5" stop-color="#DFDFDF" />
            <stop offset="1" stop-color="#F5F5F5" />
        </linearGradient>
        <linearGradient id="paint2_linear_307_297" x1="440.5" y1="86" x2="440.5" y2="526"
            gradientUnits="userSpaceOnUse">
            <stop stop-color="#F5F5F5" />
            <stop offset="0.5" stop-color="#DFDFDF" />
            <stop offset="1" stop-color="#F5F5F5" />
        </linearGradient>
        <linearGradient id="paint3_linear_307_297" x1="440.5" y1="165" x2="440.5" y2="605"
            gradientUnits="userSpaceOnUse">
            <stop stop-color="#F5F5F5" />
            <stop offset="0.5" stop-color="#DFDFDF" />
            <stop offset="1" stop-color="#F5F5F5" />
        </linearGradient>
        <clipPath id="clip0_307_297">
            <rect width="440" height="253" fill="white" />
        </clipPath>
    </defs>
</svg>