<svg width="440" height="253" viewBox="0 0 440 253" fill="none" xmlns="http://www.w3.org/2000/svg">
    <g clip-path="url(#clip0_307_192)">
        <rect width="440" height="253" fill="#F4F4F5" />
        <rect x="440" y="96" width="1" height="440" transform="rotate(90 440 96)"
            fill="url(#paint0_linear_307_192)" />
        <rect x="440" y="157" width="1" height="440" transform="rotate(90 440 157)"
            fill="url(#paint1_linear_307_192)" />
        <rect x="358" width="1" height="253" fill="url(#paint2_linear_307_192)" />
        <circle cx="80.5" cy="96.5" r="8" stroke="#DFDFDF" stroke-opacity="0.5" />
        <circle cx="80.5" cy="157.5" r="8" stroke="#DFDFDF" stroke-opacity="0.5" />
        <circle cx="358.5" cy="157.5" r="8" stroke="#DFDFDF" stroke-opacity="0.5" />
        <circle cx="358.5" cy="96.5" r="8" stroke="#DFDFDF" stroke-opacity="0.5" />
        <g filter="url(#filter0_d_307_192)">
            <rect x="91" y="107" width="257" height="40" rx="8" fill="white"
                shape-rendering="crispEdges" />
            <rect x="91.5" y="107.5" width="256" height="39" rx="7.5" stroke="#E9EAEB"
                shape-rendering="crispEdges" />
            <rect x="129" y="124" width="90" height="6" rx="3" fill="#B6B6B6" />
            <rect x="255" y="124" width="85" height="6" rx="3" fill="#808080" />
            <path
                d="M102 125.565C102 124.991 102 124.704 102.074 124.439C102.14 124.205 102.247 123.984 102.392 123.789C102.555 123.568 102.782 123.392 103.235 123.039L110.018 117.764C110.369 117.491 110.545 117.354 110.739 117.302C110.91 117.255 111.09 117.255 111.261 117.302C111.455 117.354 111.631 117.491 111.982 117.764L118.765 123.039C119.218 123.392 119.445 123.568 119.608 123.789C119.753 123.984 119.86 124.205 119.926 124.439C120 124.704 120 124.991 120 125.565V132.8C120 133.92 120 134.48 119.782 134.908C119.59 135.284 119.284 135.59 118.908 135.782C118.48 136 117.92 136 116.8 136H105.2C104.08 136 103.52 136 103.092 135.782C102.716 135.59 102.41 135.284 102.218 134.908C102 134.48 102 133.92 102 132.8V125.565Z"
                fill="#B6B6B6" stroke="#B6B6B6" stroke-width="2" stroke-linecap="round"
                stroke-linejoin="round" />
            <path d="M233.984 133.25L239.974 127.5L233.984 121.75" stroke="#B6B6B6" stroke-width="2"
                stroke-linecap="round" stroke-linejoin="round" />
        </g>
        <rect x="80" width="1" height="253" fill="url(#paint3_linear_307_192)" />
    </g>
    <defs>
        <filter id="filter0_d_307_192" x="89" y="106" width="261" height="44"
            filterUnits="userSpaceOnUse" color-interpolation-filters="sRGB">
            <feFlood flood-opacity="0" result="BackgroundImageFix" />
            <feColorMatrix in="SourceAlpha" type="matrix"
                values="0 0 0 0 0 0 0 0 0 0 0 0 0 0 0 0 0 0 127 0" result="hardAlpha" />
            <feOffset dy="1" />
            <feGaussianBlur stdDeviation="1" />
            <feComposite in2="hardAlpha" operator="out" />
            <feColorMatrix type="matrix"
                values="0 0 0 0 0.0392157 0 0 0 0 0.0496732 0 0 0 0 0.0705882 0 0 0 0.05 0" />
            <feBlend mode="normal" in2="BackgroundImageFix" result="effect1_dropShadow_307_192" />
            <feBlend mode="normal" in="SourceGraphic" in2="effect1_dropShadow_307_192"
                result="shape" />
        </filter>
        <linearGradient id="paint0_linear_307_192" x1="440.5" y1="96" x2="440.5" y2="536"
            gradientUnits="userSpaceOnUse">
            <stop stop-color="#F5F5F5" />
            <stop offset="0.5" stop-color="#DFDFDF" />
            <stop offset="1" stop-color="#F5F5F5" />
        </linearGradient>
        <linearGradient id="paint1_linear_307_192" x1="440.5" y1="157" x2="440.5" y2="597"
            gradientUnits="userSpaceOnUse">
            <stop stop-color="#F5F5F5" />
            <stop offset="0.5" stop-color="#DFDFDF" />
            <stop offset="1" stop-color="#F5F5F5" />
        </linearGradient>
        <linearGradient id="paint2_linear_307_192" x1="358.5" y1="0" x2="358.5" y2="253"
            gradientUnits="userSpaceOnUse">
            <stop stop-color="#F5F5F5" />
            <stop offset="0.5" stop-color="#DFDFDF" />
            <stop offset="1" stop-color="#F5F5F5" />
        </linearGradient>
        <linearGradient id="paint3_linear_307_192" x1="80.5" y1="0" x2="80.5" y2="253"
            gradientUnits="userSpaceOnUse">
            <stop stop-color="#F5F5F5" />
            <stop offset="0.5" stop-color="#DFDFDF" />
            <stop offset="1" stop-color="#F5F5F5" />
        </linearGradient>
        <clipPath id="clip0_307_192">
            <rect width="440" height="253" fill="white" />
        </clipPath>
    </defs>
</svg>