<svg width="440" height="253" viewBox="0 0 440 253" fill="none" xmlns="http://www.w3.org/2000/svg">
    <g clip-path="url(#clip0_307_83)">
        <rect width="440" height="253" fill="#F4F4F5" />
        <g filter="url(#filter0_d_307_83)">
            <path
                d="M223 111C223 107.686 225.686 105 229 105H318C321.314 105 324 107.686 324 111V139C324 142.314 321.314 145 318 145H229C225.686 145 223 142.314 223 139V111Z"
                fill="#0F172A" shape-rendering="crispEdges" />
            <g clip-path="url(#clip1_307_83)">
                <path
                    d="M249 130C251.761 130 254 127.761 254 125C254 122.239 251.761 120 249 120C246.239 120 244 122.239 244 125C244 127.761 246.239 130 249 130Z"
                    stroke="white" stroke-width="1.33" stroke-linecap="round"
                    stroke-linejoin="round" />
            </g>
            <path
                d="M260 125C260 123.343 261.343 122 263 122H301C302.657 122 304 123.343 304 125C304 126.657 302.657 128 301 128H263C261.343 128 260 126.657 260 125Z"
                fill="#F8F9F9" />
        </g>
        <g filter="url(#filter1_d_307_83)">
            <path
                d="M116 111C116 107.686 118.686 105 122 105H211C214.314 105 217 107.686 217 111V139C217 142.314 214.314 145 211 145H122C118.686 145 116 142.314 116 139V111Z"
                fill="#F8F9F9" shape-rendering="crispEdges" />
            <path
                d="M122 105.5H211C214.038 105.5 216.5 107.962 216.5 111V139C216.5 142.038 214.038 144.5 211 144.5H122C118.962 144.5 116.5 142.038 116.5 139V111C116.5 107.962 118.962 105.5 122 105.5Z"
                stroke="#C5C9D0" shape-rendering="crispEdges" />
            <rect x="140" y="122" width="54" height="6" rx="3" fill="#0F172A" />
        </g>
        <rect x="105" width="1" height="253" fill="url(#paint0_linear_307_83)" />
        <rect x="440" y="94" width="1" height="440" transform="rotate(90 440 94)"
            fill="url(#paint1_linear_307_83)" />
        <rect x="440" y="155" width="1" height="440" transform="rotate(90 440 155)"
            fill="url(#paint2_linear_307_83)" />
        <rect x="334" width="1" height="253" fill="url(#paint3_linear_307_83)" />
        <circle cx="105.5" cy="94.5" r="8" stroke="#DFDFDF" stroke-opacity="0.5" />
        <circle cx="105.5" cy="155.5" r="8" stroke="#DFDFDF" stroke-opacity="0.5" />
        <circle cx="334.5" cy="155.5" r="8" stroke="#DFDFDF" stroke-opacity="0.5" />
        <circle cx="334.5" cy="94.5" r="8" stroke="#DFDFDF" stroke-opacity="0.5" />
    </g>
    <defs>
        <filter id="filter0_d_307_83" x="221" y="104" width="105" height="44"
            filterUnits="userSpaceOnUse" color-interpolation-filters="sRGB">
            <feFlood flood-opacity="0" result="BackgroundImageFix" />
            <feColorMatrix in="SourceAlpha" type="matrix"
                values="0 0 0 0 0 0 0 0 0 0 0 0 0 0 0 0 0 0 127 0" result="hardAlpha" />
            <feOffset dy="1" />
            <feGaussianBlur stdDeviation="1" />
            <feComposite in2="hardAlpha" operator="out" />
            <feColorMatrix type="matrix"
                values="0 0 0 0 0.0392157 0 0 0 0 0.0509804 0 0 0 0 0.0705882 0 0 0 0.25 0" />
            <feBlend mode="normal" in2="BackgroundImageFix" result="effect1_dropShadow_307_83" />
            <feBlend mode="normal" in="SourceGraphic" in2="effect1_dropShadow_307_83" result="shape" />
        </filter>
        <filter id="filter1_d_307_83" x="114" y="104" width="105" height="44"
            filterUnits="userSpaceOnUse" color-interpolation-filters="sRGB">
            <feFlood flood-opacity="0" result="BackgroundImageFix" />
            <feColorMatrix in="SourceAlpha" type="matrix"
                values="0 0 0 0 0 0 0 0 0 0 0 0 0 0 0 0 0 0 127 0" result="hardAlpha" />
            <feOffset dy="1" />
            <feGaussianBlur stdDeviation="1" />
            <feComposite in2="hardAlpha" operator="out" />
            <feColorMatrix type="matrix"
                values="0 0 0 0 0.0392157 0 0 0 0 0.0509804 0 0 0 0 0.0705882 0 0 0 0.1 0" />
            <feBlend mode="normal" in2="BackgroundImageFix" result="effect1_dropShadow_307_83" />
            <feBlend mode="normal" in="SourceGraphic" in2="effect1_dropShadow_307_83" result="shape" />
        </filter>
        <linearGradient id="paint0_linear_307_83" x1="105.5" y1="0" x2="105.5" y2="253"
            gradientUnits="userSpaceOnUse">
            <stop stop-color="#F5F5F5" />
            <stop offset="0.5" stop-color="#DFDFDF" />
            <stop offset="1" stop-color="#F5F5F5" />
        </linearGradient>
        <linearGradient id="paint1_linear_307_83" x1="440.5" y1="94" x2="440.5" y2="534"
            gradientUnits="userSpaceOnUse">
            <stop stop-color="#F5F5F5" />
            <stop offset="0.5" stop-color="#DFDFDF" />
            <stop offset="1" stop-color="#F5F5F5" />
        </linearGradient>
        <linearGradient id="paint2_linear_307_83" x1="440.5" y1="155" x2="440.5" y2="595"
            gradientUnits="userSpaceOnUse">
            <stop stop-color="#F5F5F5" />
            <stop offset="0.5" stop-color="#DFDFDF" />
            <stop offset="1" stop-color="#F5F5F5" />
        </linearGradient>
        <linearGradient id="paint3_linear_307_83" x1="334.5" y1="0" x2="334.5" y2="253"
            gradientUnits="userSpaceOnUse">
            <stop stop-color="#F5F5F5" />
            <stop offset="0.5" stop-color="#DFDFDF" />
            <stop offset="1" stop-color="#F5F5F5" />
        </linearGradient>
        <clipPath id="clip0_307_83">
            <rect width="440" height="253" fill="white" />
        </clipPath>
        <clipPath id="clip1_307_83">
            <rect width="12" height="12" fill="white" transform="translate(243 119)" />
        </clipPath>
    </defs>
</svg>