<svg width="440" height="253" viewBox="0 0 440 253" fill="none" xmlns="http://www.w3.org/2000/svg">
    <g clip-path="url(#clip0_77_289)">
        <rect width="440" height="253" fill="#27272A" />
        <rect x="440" y="34" width="1" height="440" transform="rotate(90 440 34)"
            fill="url(#paint0_linear_77_289)" />
        <circle cx="47.5" cy="34.5" r="8" stroke="#7B7B7B" />
        <circle cx="392.5" cy="34.5" r="8" stroke="#7B7B7B" />
        <rect x="392" width="1" height="253" fill="url(#paint1_linear_77_289)" />
        <rect x="47" y="1" width="1" height="253" fill="url(#paint2_linear_77_289)" />
        <g filter="url(#filter0_d_77_289)">
            <path
                d="M58 49C58 45.6863 60.6863 43 64 43H376C379.314 43 382 45.6863 382 49V251H58V49Z"
                fill="#71717A" fill-opacity="0.25" shape-rendering="crispEdges" />
            <path
                d="M64 43.5H376C379.038 43.5 381.5 45.9624 381.5 49V250.5H58.5V49C58.5 45.9624 60.9624 43.5 64 43.5Z"
                stroke="#575757" shape-rendering="crispEdges" />
            <line x1="58" y1="55.5" x2="382" y2="55.5" stroke="#575757" />
            <circle cx="65.5" cy="49.5" r="2.5" fill="#EB6352" />
            <circle cx="72.5" cy="49.5" r="2.5" fill="#F3B83F" />
            <circle cx="79.5" cy="49.5" r="2.5" fill="#55BB46" />
            <circle cx="77" cy="73" r="8" fill="#D9D9D9" />
            <rect x="91" y="71" width="54" height="4" rx="2" fill="#D9D9D9" />
            <g clip-path="url(#clip1_77_289)">
                <g filter="url(#filter1_d_77_289)">
                    <path
                        d="M334.629 70.2272C334.629 69.1728 335.473 68.3181 336.514 68.3181H364.486C365.527 68.3181 366.371 69.1728 366.371 70.2272V79.1363C366.371 80.1907 365.527 81.0454 364.486 81.0454H336.514C335.473 81.0454 334.629 80.1907 334.629 79.1363V70.2272Z"
                        fill="#0F172A" />
                    <mask id="mask0_77_289" style="mask-type:luminance" maskUnits="userSpaceOnUse"
                        x="340" y="72" width="5" height="5">
                        <path d="M344.686 72.7727H340.914V76.5909H344.686V72.7727Z" fill="white" />
                    </mask>
                    <g mask="url(#mask0_77_289)">
                        <path
                            d="M342.8 76.2726C343.668 76.2726 344.371 75.5604 344.371 74.6817C344.371 73.8031 343.668 73.0908 342.8 73.0908C341.932 73.0908 341.229 73.8031 341.229 74.6817C341.229 75.5604 341.932 76.2726 342.8 76.2726Z"
                            stroke="white" stroke-width="1.33" stroke-linecap="round"
                            stroke-linejoin="round" />
                    </g>
                    <path
                        d="M346.257 74.6818C346.257 74.1546 346.679 73.7273 347.2 73.7273H359.143C359.664 73.7273 360.086 74.1546 360.086 74.6818C360.086 75.209 359.664 75.6364 359.143 75.6364H347.2C346.679 75.6364 346.257 75.209 346.257 74.6818Z"
                        fill="#F8F9F9" />
                </g>
            </g>
            <rect x="68" y="100" width="68" height="11" rx="2" fill="#F3F3F3" />
            <rect x="68" y="121" width="68" height="11" rx="2" fill="#F3F3F3" />
            <rect x="68" y="141" width="68" height="11" rx="2" fill="#F3F3F3" />
            <rect x="68" y="159" width="68" height="11" rx="2" fill="#F3F3F3" />
            <rect x="68" y="180" width="68" height="11" rx="2" fill="#F3F3F3" />
            <rect x="68" y="200" width="68" height="11" rx="2" fill="#F3F3F3" />
            <rect x="298" y="89" width="68" height="117" rx="2" fill="#F3F3F3" />
            <foreignObject x="55" y="52" width="330" height="203">
                <div xmlns="http://www.w3.org/1999/xhtml"
                    style="backdrop-filter:blur(2px);clip-path:url(#bgblur_2_77_289_clip_path);height:100%;width:100%"></div>
            </foreignObject>
            <rect data-figma-bg-blur-radius="4" x="59" y="56" width="322" height="195"
                fill="url(#paint3_linear_77_289)" />
            <g filter="url(#filter3_ddd_77_289)">
                <g clip-path="url(#clip3_77_289)">
                    <rect x="265" y="62" width="111" height="32" rx="4" fill="#27272A" />
                    <circle cx="281" cy="78" r="8" fill="#F3F3F3" />
                    <rect x="371.872" y="66.2227" width="0.288178" height="3.74632" rx="0.144089"
                        transform="rotate(45 371.872 66.2227)" fill="#D9D9D9" />
                    <rect x="369.426" y="66.2227" width="3.74632" height="0.288178" rx="0.144089"
                        transform="rotate(45 369.426 66.2227)" fill="#D9D9D9" />
                    <rect x="295" y="72" width="41" height="4" rx="2" fill="#D9D9D9" />
                    <rect x="295" y="81" width="63" height="2" rx="1" fill="#EEEEEE" />
                </g>
                <rect x="265.5" y="62.5" width="110" height="31" rx="3.5" stroke="#545454" />
            </g>
        </g>
        <rect y="174" width="440" height="77" fill="url(#paint4_linear_77_289)" />
    </g>
    <defs>
        <filter id="filter0_d_77_289" x="56" y="42" width="328" height="212"
            filterUnits="userSpaceOnUse" color-interpolation-filters="sRGB">
            <feFlood flood-opacity="0" result="BackgroundImageFix" />
            <feColorMatrix in="SourceAlpha" type="matrix"
                values="0 0 0 0 0 0 0 0 0 0 0 0 0 0 0 0 0 0 127 0" result="hardAlpha" />
            <feOffset dy="1" />
            <feGaussianBlur stdDeviation="1" />
            <feComposite in2="hardAlpha" operator="out" />
            <feColorMatrix type="matrix"
                values="0 0 0 0 0.0392157 0 0 0 0 0.0496732 0 0 0 0 0.0705882 0 0 0 0.05 0" />
            <feBlend mode="normal" in2="BackgroundImageFix" result="effect1_dropShadow_77_289" />
            <feBlend mode="normal" in="SourceGraphic" in2="effect1_dropShadow_77_289" result="shape" />
        </filter>
        <filter id="filter1_d_77_289" x="332.629" y="67.3181" width="35.7429" height="16.7273"
            filterUnits="userSpaceOnUse" color-interpolation-filters="sRGB">
            <feFlood flood-opacity="0" result="BackgroundImageFix" />
            <feColorMatrix in="SourceAlpha" type="matrix"
                values="0 0 0 0 0 0 0 0 0 0 0 0 0 0 0 0 0 0 127 0" result="hardAlpha" />
            <feOffset dy="1" />
            <feGaussianBlur stdDeviation="1" />
            <feComposite in2="hardAlpha" operator="out" />
            <feColorMatrix type="matrix"
                values="0 0 0 0 0.0392157 0 0 0 0 0.0509804 0 0 0 0 0.0705882 0 0 0 0.25 0" />
            <feBlend mode="normal" in2="BackgroundImageFix" result="effect1_dropShadow_77_289" />
            <feBlend mode="normal" in="SourceGraphic" in2="effect1_dropShadow_77_289" result="shape" />
        </filter>
        <clipPath id="bgblur_2_77_289_clip_path" transform="translate(-55 -52)">
            <rect x="59" y="56" width="322" height="195" />
        </clipPath>
        <filter id="filter3_ddd_77_289" x="245" y="62" width="151" height="72"
            filterUnits="userSpaceOnUse" color-interpolation-filters="sRGB">
            <feFlood flood-opacity="0" result="BackgroundImageFix" />
            <feColorMatrix in="SourceAlpha" type="matrix"
                values="0 0 0 0 0 0 0 0 0 0 0 0 0 0 0 0 0 0 127 0" result="hardAlpha" />
            <feMorphology radius="1.5" operator="erode" in="SourceAlpha"
                result="effect1_dropShadow_77_289" />
            <feOffset dy="3" />
            <feGaussianBlur stdDeviation="1.5" />
            <feComposite in2="hardAlpha" operator="out" />
            <feColorMatrix type="matrix"
                values="0 0 0 0 0.0392157 0 0 0 0 0.0496732 0 0 0 0 0.0705882 0 0 0 0.04 0" />
            <feBlend mode="normal" in2="BackgroundImageFix" result="effect1_dropShadow_77_289" />
            <feColorMatrix in="SourceAlpha" type="matrix"
                values="0 0 0 0 0 0 0 0 0 0 0 0 0 0 0 0 0 0 127 0" result="hardAlpha" />
            <feMorphology radius="4" operator="erode" in="SourceAlpha"
                result="effect2_dropShadow_77_289" />
            <feOffset dy="8" />
            <feGaussianBlur stdDeviation="4" />
            <feComposite in2="hardAlpha" operator="out" />
            <feColorMatrix type="matrix"
                values="0 0 0 0 0.0392157 0 0 0 0 0.0496732 0 0 0 0 0.0705882 0 0 0 0.03 0" />
            <feBlend mode="normal" in2="effect1_dropShadow_77_289"
                result="effect2_dropShadow_77_289" />
            <feColorMatrix in="SourceAlpha" type="matrix"
                values="0 0 0 0 0 0 0 0 0 0 0 0 0 0 0 0 0 0 127 0" result="hardAlpha" />
            <feMorphology radius="4" operator="erode" in="SourceAlpha"
                result="effect3_dropShadow_77_289" />
            <feOffset dy="20" />
            <feGaussianBlur stdDeviation="12" />
            <feComposite in2="hardAlpha" operator="out" />
            <feColorMatrix type="matrix"
                values="0 0 0 0 0.0392157 0 0 0 0 0.0496732 0 0 0 0 0.0705882 0 0 0 0.08 0" />
            <feBlend mode="normal" in2="effect2_dropShadow_77_289"
                result="effect3_dropShadow_77_289" />
            <feBlend mode="normal" in="SourceGraphic" in2="effect3_dropShadow_77_289" result="shape" />
        </filter>
        <linearGradient id="paint0_linear_77_289" x1="440.5" y1="34" x2="440.5" y2="474"
            gradientUnits="userSpaceOnUse">
            <stop stop-color="#A1A1AA" stop-opacity="0" />
            <stop offset="0.5" stop-color="#A1A1AA" />
            <stop offset="1" stop-color="#A1A1AA" stop-opacity="0" />
        </linearGradient>
        <linearGradient id="paint1_linear_77_289" x1="392.5" y1="0" x2="392.5" y2="253"
            gradientUnits="userSpaceOnUse">
            <stop stop-color="#A1A1AA" stop-opacity="0" />
            <stop offset="0.5" stop-color="#A1A1AA" />
            <stop offset="1" stop-color="#A1A1AA" stop-opacity="0" />
        </linearGradient>
        <linearGradient id="paint2_linear_77_289" x1="47.5" y1="1" x2="47.5" y2="254"
            gradientUnits="userSpaceOnUse">
            <stop stop-color="#A1A1AA" stop-opacity="0" />
            <stop offset="0.5" stop-color="#A1A1AA" />
            <stop offset="1" stop-color="#A1A1AA" stop-opacity="0" />
        </linearGradient>
        <linearGradient id="paint3_linear_77_289" x1="220" y1="56" x2="220" y2="251"
            gradientUnits="userSpaceOnUse">
            <stop stop-color="#3E3E3E" stop-opacity="0.5" />
            <stop offset="1" stop-color="#171717" />
        </linearGradient>
        <linearGradient id="paint4_linear_77_289" x1="220" y1="174" x2="220" y2="251"
            gradientUnits="userSpaceOnUse">
            <stop stop-color="#383838" stop-opacity="0" />
            <stop offset="1" stop-color="#27272A" />
        </linearGradient>
        <clipPath id="clip0_77_289">
            <rect width="440" height="253" fill="white" />
        </clipPath>
        <clipPath id="clip1_77_289">
            <rect width="33" height="14" fill="white" transform="translate(334 68)" />
        </clipPath>
        <clipPath id="clip3_77_289">
            <rect x="265" y="62" width="111" height="32" rx="4" fill="white" />
        </clipPath>
    </defs>
</svg>