<svg width="440" height="253" viewBox="0 0 440 253" fill="none" xmlns="http://www.w3.org/2000/svg">
    <g clip-path="url(#clip0_285_243)">
        <rect width="440" height="253" fill="#27272A" />
        <g filter="url(#filter0_d_285_243)">
            <path
                d="M94 113C94 109.686 96.6863 107 100 107H128C131.314 107 134 109.686 134 113V141C134 144.314 131.314 147 128 147H100C96.6863 147 94 144.314 94 141V113Z"
                fill="#71717A" fill-opacity="0.25" shape-rendering="crispEdges" />
            <path
                d="M100 107.5H128C131.038 107.5 133.5 109.962 133.5 113V141C133.5 144.038 131.038 146.5 128 146.5H100C96.9624 146.5 94.5 144.038 94.5 141V113C94.5 109.962 96.9624 107.5 100 107.5Z"
                stroke="#575757" shape-rendering="crispEdges" />
        </g>
        <path d="M117 133L111 127L117 121" stroke="#808080" stroke-width="2" stroke-linecap="round"
            stroke-linejoin="round" />
        <circle cx="83.5" cy="96.5" r="8" stroke="#7B7B7B" />
        <circle cx="83.5" cy="157.5" r="8" stroke="#7B7B7B" />
        <path d="M83 0H84V253H83V0Z" fill="url(#paint0_linear_285_243)" />
        <g filter="url(#filter1_d_285_243)">
            <path
                d="M305 113C305 109.686 307.686 107 311 107H339C342.314 107 345 109.686 345 113V141C345 144.314 342.314 147 339 147H311C307.686 147 305 144.314 305 141V113Z"
                fill="#71717A" fill-opacity="0.25" shape-rendering="crispEdges" />
            <path
                d="M311 107.5H339C342.038 107.5 344.5 109.962 344.5 113V141C344.5 144.038 342.038 146.5 339 146.5H311C307.962 146.5 305.5 144.038 305.5 141V113C305.5 109.962 307.962 107.5 311 107.5Z"
                stroke="#575757" shape-rendering="crispEdges" />
        </g>
        <path d="M322 121L328 127L322 133" stroke="#808080" stroke-width="2" stroke-linecap="round"
            stroke-linejoin="round" />
        <rect x="440" y="96" width="1" height="440" transform="rotate(90 440 96)"
            fill="url(#paint1_linear_285_243)" />
        <circle cx="355.5" cy="96.5" r="8" stroke="#7B7B7B" />
        <circle cx="355.5" cy="157.5" r="8" stroke="#7B7B7B" />
        <rect x="440" y="157" width="1" height="440" transform="rotate(90 440 157)"
            fill="url(#paint2_linear_285_243)" />
        <rect x="355" width="1" height="253" fill="url(#paint3_linear_285_243)" />
        <rect x="144" y="124" width="45" height="6" rx="3" fill="#F4F4F5" />
        <rect x="197" y="124" width="45" height="6" rx="3" fill="#4E4E4E" />
        <rect x="250" y="124" width="45" height="6" rx="3" fill="#4E4E4E" />
    </g>
    <defs>
        <filter id="filter0_d_285_243" x="92" y="106" width="44" height="44"
            filterUnits="userSpaceOnUse" color-interpolation-filters="sRGB">
            <feFlood flood-opacity="0" result="BackgroundImageFix" />
            <feColorMatrix in="SourceAlpha" type="matrix"
                values="0 0 0 0 0 0 0 0 0 0 0 0 0 0 0 0 0 0 127 0" result="hardAlpha" />
            <feOffset dy="1" />
            <feGaussianBlur stdDeviation="1" />
            <feComposite in2="hardAlpha" operator="out" />
            <feColorMatrix type="matrix"
                values="0 0 0 0 0.0392157 0 0 0 0 0.0509804 0 0 0 0 0.0705882 0 0 0 0.1 0" />
            <feBlend mode="normal" in2="BackgroundImageFix" result="effect1_dropShadow_285_243" />
            <feBlend mode="normal" in="SourceGraphic" in2="effect1_dropShadow_285_243"
                result="shape" />
        </filter>
        <filter id="filter1_d_285_243" x="303" y="106" width="44" height="44"
            filterUnits="userSpaceOnUse" color-interpolation-filters="sRGB">
            <feFlood flood-opacity="0" result="BackgroundImageFix" />
            <feColorMatrix in="SourceAlpha" type="matrix"
                values="0 0 0 0 0 0 0 0 0 0 0 0 0 0 0 0 0 0 127 0" result="hardAlpha" />
            <feOffset dy="1" />
            <feGaussianBlur stdDeviation="1" />
            <feComposite in2="hardAlpha" operator="out" />
            <feColorMatrix type="matrix"
                values="0 0 0 0 0.0392157 0 0 0 0 0.0509804 0 0 0 0 0.0705882 0 0 0 0.1 0" />
            <feBlend mode="normal" in2="BackgroundImageFix" result="effect1_dropShadow_285_243" />
            <feBlend mode="normal" in="SourceGraphic" in2="effect1_dropShadow_285_243"
                result="shape" />
        </filter>
        <linearGradient id="paint0_linear_285_243" x1="82.5" y1="0" x2="82.5" y2="253"
            gradientUnits="userSpaceOnUse">
            <stop stop-color="#A1A1AA" stop-opacity="0" />
            <stop offset="0.5" stop-color="#A1A1AA" />
            <stop offset="1" stop-color="#A1A1AA" stop-opacity="0" />
        </linearGradient>
        <linearGradient id="paint1_linear_285_243" x1="440.5" y1="96" x2="440.5" y2="536"
            gradientUnits="userSpaceOnUse">
            <stop stop-color="#A1A1AA" stop-opacity="0" />
            <stop offset="0.5" stop-color="#A1A1AA" />
            <stop offset="1" stop-color="#A1A1AA" stop-opacity="0" />
        </linearGradient>
        <linearGradient id="paint2_linear_285_243" x1="440.5" y1="157" x2="440.5" y2="597"
            gradientUnits="userSpaceOnUse">
            <stop stop-color="#A1A1AA" stop-opacity="0" />
            <stop offset="0.5" stop-color="#A1A1AA" />
            <stop offset="1" stop-color="#A1A1AA" stop-opacity="0" />
        </linearGradient>
        <linearGradient id="paint3_linear_285_243" x1="355.5" y1="0" x2="355.5" y2="253"
            gradientUnits="userSpaceOnUse">
            <stop stop-color="#A1A1AA" stop-opacity="0" />
            <stop offset="0.5" stop-color="#A1A1AA" />
            <stop offset="1" stop-color="#A1A1AA" stop-opacity="0" />
        </linearGradient>
        <clipPath id="clip0_285_243">
            <rect width="440" height="253" fill="white" />
        </clipPath>
    </defs>
</svg>