<svg width="440" height="253" viewBox="0 0 440 253" fill="none" xmlns="http://www.w3.org/2000/svg">
    <g clip-path="url(#clip0_153_157)">
        <rect width="440" height="253" fill="#27272A" />
        <rect x="46" width="1" height="253" fill="url(#paint0_linear_153_157)" />
        <rect x="392" width="1" height="253" fill="url(#paint1_linear_153_157)" />
        <rect x="440" y="64" width="1" height="440" transform="rotate(90 440 64)"
            fill="url(#paint2_linear_153_157)" />
        <rect x="440" y="191" width="1" height="440" transform="rotate(90 440 191)"
            fill="url(#paint3_linear_153_157)" />
        <circle cx="392.5" cy="64.5" r="8" stroke="#7B7B7B" />
        <circle cx="392.5" cy="191.5" r="8" stroke="#7B7B7B" />
        <circle cx="46.5" cy="191.5" r="8" stroke="#7B7B7B" />
        <circle cx="46.5" cy="64.5" r="8" stroke="#7B7B7B" />
        <rect x="57.5" y="75.5" width="324" height="105" rx="5.5" fill="#37383E" stroke="#4C4D53" />
        <line x1="57" y1="90.5" x2="381" y2="90.5" stroke="#4C4D53" />
        <line x1="57" y1="120.5" x2="381" y2="120.5" stroke="#4C4D53" />
        <line x1="57" y1="150.5" x2="381" y2="150.5" stroke="#4C4D53" />
        <line x1="138.5" y1="76" x2="138.5" y2="180" stroke="#4C4D53" />
        <line x1="219.5" y1="76" x2="219.5" y2="180" stroke="#4C4D53" />
        <line x1="300.5" y1="76" x2="300.5" y2="180" stroke="#4C4D53" />
        <mask id="path-16-inside-1_153_157" fill="white">
            <path d="M57 81C57 77.6863 59.6863 75 63 75H138V90H57V81Z" />
        </mask>
        <path d="M57 81C57 77.6863 59.6863 75 63 75H138V90H57V81Z" fill="#3A3A3E" />
        <path
            d="M56 81C56 77.134 59.134 74 63 74H138V76H63C60.2386 76 58 78.2386 58 81H56ZM138 90H57H138ZM56 90V81C56 77.134 59.134 74 63 74V76C60.2386 76 58 78.2386 58 81V90H56ZM138 75V90V75Z"
            fill="#4C4D53" mask="url(#path-16-inside-1_153_157)" />
        <mask id="path-18-inside-2_153_157" fill="white">
            <path d="M301 75H376C379.314 75 382 77.6863 382 81V90H301V75Z" />
        </mask>
        <path d="M301 75H376C379.314 75 382 77.6863 382 81V90H301V75Z" fill="#3A3A3E" />
        <path
            d="M301 74H376C379.866 74 383 77.134 383 81H381C381 78.2386 378.761 76 376 76H301V74ZM382 90H301H382ZM301 90V75V90ZM376 74C379.866 74 383 77.134 383 81V90H381V81C381 78.2386 378.761 76 376 76V74Z"
            fill="#4C4D53" mask="url(#path-18-inside-2_153_157)" />
        <rect x="139" y="76" width="80" height="14" fill="#3A3A3E" />
        <rect x="220" y="76" width="80" height="14" fill="#3A3A3E" />
        <rect x="63" y="81" width="28" height="4" rx="2" fill="#696969" />
        <rect x="144" y="81" width="28" height="4" rx="2" fill="#696969" />
        <rect x="225" y="81" width="28" height="4" rx="2" fill="#696969" />
        <rect x="306" y="81" width="28" height="4" rx="2" fill="#696969" />
        <rect x="60.5" y="123.5" width="75" height="24" rx="1.5" fill="#44454D" stroke="#696969" />
        <rect x="64.5" y="127.5" width="30" height="1" rx="0.5" fill="#6E6F76" stroke="#696969" />
        <mask id="path-28-inside-3_153_157" fill="white">
            <path
                d="M141 155C141 153.895 141.895 153 143 153H215C216.105 153 217 153.895 217 155V180H141V155Z" />
        </mask>
        <path
            d="M141 155C141 153.895 141.895 153 143 153H215C216.105 153 217 153.895 217 155V180H141V155Z"
            fill="#44454D" />
        <path
            d="M140 155C140 153.343 141.343 152 143 152H215C216.657 152 218 153.343 218 155H216C216 154.448 215.552 154 215 154H143C142.448 154 142 154.448 142 155H140ZM217 180H141H217ZM140 180V155C140 153.343 141.343 152 143 152V154C142.448 154 142 154.448 142 155V180H140ZM215 152C216.657 152 218 153.343 218 155V180H216V155C216 154.448 215.552 154 215 154V152Z"
            fill="#696969" mask="url(#path-28-inside-3_153_157)" />
        <rect x="145" y="157" width="44" height="2" rx="1" fill="#6E6F76" />
        <rect x="222.5" y="93.5" width="75" height="84" rx="1.5" fill="#44454D" stroke="#696969" />
        <rect x="226" y="97" width="44" height="2" rx="1" fill="#9798A2" />
        <rect x="303.5" y="93.5" width="75" height="24" rx="1.5" fill="#44454D" stroke="#696969" />
        <rect x="307" y="97" width="44" height="2" rx="1" fill="#6E6F76" />
    </g>
    <defs>
        <linearGradient id="paint0_linear_153_157" x1="46.5" y1="0" x2="46.5" y2="253"
            gradientUnits="userSpaceOnUse">
            <stop stop-color="#A1A1AA" stop-opacity="0" />
            <stop offset="0.5" stop-color="#A1A1AA" />
            <stop offset="1" stop-color="#A1A1AA" stop-opacity="0" />
        </linearGradient>
        <linearGradient id="paint1_linear_153_157" x1="392.5" y1="0" x2="392.5" y2="253"
            gradientUnits="userSpaceOnUse">
            <stop stop-color="#A1A1AA" stop-opacity="0" />
            <stop offset="0.5" stop-color="#A1A1AA" />
            <stop offset="1" stop-color="#A1A1AA" stop-opacity="0" />
        </linearGradient>
        <linearGradient id="paint2_linear_153_157" x1="440.5" y1="64" x2="440.5" y2="504"
            gradientUnits="userSpaceOnUse">
            <stop stop-color="#A1A1AA" stop-opacity="0" />
            <stop offset="0.5" stop-color="#A1A1AA" />
            <stop offset="1" stop-color="#A1A1AA" stop-opacity="0" />
        </linearGradient>
        <linearGradient id="paint3_linear_153_157" x1="440.5" y1="191" x2="440.5" y2="631"
            gradientUnits="userSpaceOnUse">
            <stop stop-color="#A1A1AA" stop-opacity="0" />
            <stop offset="0.5" stop-color="#A1A1AA" />
            <stop offset="1" stop-color="#A1A1AA" stop-opacity="0" />
        </linearGradient>
        <clipPath id="clip0_153_157">
            <rect width="440" height="253" fill="white" />
        </clipPath>
    </defs>
</svg>