<svg width="440" height="253" viewBox="0 0 440 253" fill="none" xmlns="http://www.w3.org/2000/svg">
    <g clip-path="url(#clip0_74_58)">
        <rect width="440" height="253" fill="#27272A" />
        <path
            d="M192 127C192 111.536 204.536 99 220 99C235.464 99 248 111.536 248 127C248 142.464 235.464 155 220 155C204.536 155 192 142.464 192 127Z"
            fill="#A1A1AA" />
        <path
            d="M220 99.5C235.188 99.5 247.5 111.812 247.5 127C247.5 142.188 235.188 154.5 220 154.5C204.812 154.5 192.5 142.188 192.5 127C192.5 111.812 204.812 99.5 220 99.5Z"
            stroke="#71717A" stroke-opacity="0.25" />
        <path
            d="M230.667 139C230.667 137.139 230.667 136.209 230.437 135.452C229.92 133.747 228.586 132.413 226.882 131.896C226.124 131.667 225.194 131.667 223.333 131.667H216.667C214.806 131.667 213.876 131.667 213.118 131.896C211.414 132.413 210.08 133.747 209.563 135.452C209.333 136.209 209.333 137.139 209.333 139M226 121C226 124.314 223.314 127 220 127C216.686 127 214 124.314 214 121C214 117.686 216.686 115 220 115C223.314 115 226 117.686 226 121Z"
            stroke="#27272A" stroke-width="2.67" stroke-linecap="round" stroke-linejoin="round" />
        <path
            d="M241 140.25C245.28 140.25 248.75 143.72 248.75 148C248.75 152.28 245.28 155.75 241 155.75C236.72 155.75 233.25 152.28 233.25 148C233.25 143.72 236.72 140.25 241 140.25Z"
            fill="#17B26A" />
        <path
            d="M241 140.25C245.28 140.25 248.75 143.72 248.75 148C248.75 152.28 245.28 155.75 241 155.75C236.72 155.75 233.25 152.28 233.25 148C233.25 143.72 236.72 140.25 241 140.25Z"
            stroke="#09090B" stroke-width="1.5" />
        <rect x="440" y="88" width="1" height="440" transform="rotate(90 440 88)"
            fill="url(#paint0_linear_74_58)" />
        <circle cx="181.5" cy="87.5" r="8" stroke="#7B7B7B" />
        <circle cx="258.5" cy="88.5" r="8" stroke="#7B7B7B" />
        <rect x="440" y="165" width="1" height="440" transform="rotate(90 440 165)"
            fill="url(#paint1_linear_74_58)" />
        <circle cx="181.5" cy="165.5" r="8" stroke="#7B7B7B" />
        <circle cx="258.5" cy="165.5" r="8" stroke="#7B7B7B" />
        <rect x="258" width="1" height="253" fill="url(#paint2_linear_74_58)" />
        <rect x="181" width="1" height="253" fill="url(#paint3_linear_74_58)" />
    </g>
    <defs>
        <linearGradient id="paint0_linear_74_58" x1="440.5" y1="88" x2="440.5" y2="528"
            gradientUnits="userSpaceOnUse">
            <stop stop-color="#A1A1AA" stop-opacity="0" />
            <stop offset="0.5" stop-color="#A1A1AA" />
            <stop offset="1" stop-color="#A1A1AA" stop-opacity="0" />
        </linearGradient>
        <linearGradient id="paint1_linear_74_58" x1="440.5" y1="165" x2="440.5" y2="605"
            gradientUnits="userSpaceOnUse">
            <stop stop-color="#A1A1AA" stop-opacity="0" />
            <stop offset="0.5" stop-color="#A1A1AA" />
            <stop offset="1" stop-color="#A1A1AA" stop-opacity="0" />
        </linearGradient>
        <linearGradient id="paint2_linear_74_58" x1="258.5" y1="0" x2="258.5" y2="253"
            gradientUnits="userSpaceOnUse">
            <stop stop-color="#A1A1AA" stop-opacity="0" />
            <stop offset="0.5" stop-color="#A1A1AA" />
            <stop offset="1" stop-color="#A1A1AA" stop-opacity="0" />
        </linearGradient>
        <linearGradient id="paint3_linear_74_58" x1="181.5" y1="0" x2="181.5" y2="253"
            gradientUnits="userSpaceOnUse">
            <stop stop-color="#A1A1AA" stop-opacity="0" />
            <stop offset="0.5" stop-color="#A1A1AA" />
            <stop offset="1" stop-color="#A1A1AA" stop-opacity="0" />
        </linearGradient>
        <clipPath id="clip0_74_58">
            <rect width="440" height="253" fill="white" />
        </clipPath>
    </defs>
</svg>