<svg width="440" height="253" viewBox="0 0 440 253" fill="none" xmlns="http://www.w3.org/2000/svg">
    <g clip-path="url(#clip0_198_127)">
        <rect width="440" height="253" fill="#27272A" />
        <path d="M70 127C70 123.686 72.6863 121 76 121H220V133H76C72.6863 133 70 130.314 70 127Z"
            fill="#FAFAFA" />
        <path
            d="M220 121H364C367.314 121 370 123.686 370 127C370 130.314 367.314 133 364 133H220V121Z"
            fill="#5B5B5B" />
        <circle cx="220" cy="127" r="11.5" fill="black" stroke="white" />
        <rect x="59" width="1" height="253" fill="url(#paint0_linear_198_127)" />
        <circle cx="59.5" cy="143.5" r="8" stroke="#7B7B7B" />
        <circle cx="59.5" cy="110.5" r="8" stroke="#7B7B7B" />
        <rect x="380" width="1" height="253" fill="url(#paint1_linear_198_127)" />
        <circle cx="380.5" cy="143.5" r="8" stroke="#7B7B7B" />
        <circle cx="380.5" cy="110.5" r="8" stroke="#7B7B7B" />
        <rect x="442" y="110" width="1" height="440" transform="rotate(90 442 110)"
            fill="url(#paint2_linear_198_127)" />
        <rect x="442" y="143" width="1" height="440" transform="rotate(90 442 143)"
            fill="url(#paint3_linear_198_127)" />
    </g>
    <defs>
        <linearGradient id="paint0_linear_198_127" x1="59.5" y1="0" x2="59.5" y2="253"
            gradientUnits="userSpaceOnUse">
            <stop stop-color="#A1A1AA" stop-opacity="0" />
            <stop offset="0.5" stop-color="#A1A1AA" />
            <stop offset="1" stop-color="#A1A1AA" stop-opacity="0" />
        </linearGradient>
        <linearGradient id="paint1_linear_198_127" x1="380.5" y1="0" x2="380.5" y2="253"
            gradientUnits="userSpaceOnUse">
            <stop stop-color="#A1A1AA" stop-opacity="0" />
            <stop offset="0.5" stop-color="#A1A1AA" />
            <stop offset="1" stop-color="#A1A1AA" stop-opacity="0" />
        </linearGradient>
        <linearGradient id="paint2_linear_198_127" x1="442.5" y1="110" x2="442.5" y2="550"
            gradientUnits="userSpaceOnUse">
            <stop stop-color="#A1A1AA" stop-opacity="0" />
            <stop offset="0.5" stop-color="#A1A1AA" />
            <stop offset="1" stop-color="#A1A1AA" stop-opacity="0" />
        </linearGradient>
        <linearGradient id="paint3_linear_198_127" x1="442.5" y1="143" x2="442.5" y2="583"
            gradientUnits="userSpaceOnUse">
            <stop stop-color="#A1A1AA" stop-opacity="0" />
            <stop offset="0.5" stop-color="#A1A1AA" />
            <stop offset="1" stop-color="#A1A1AA" stop-opacity="0" />
        </linearGradient>
        <clipPath id="clip0_198_127">
            <rect width="440" height="253" fill="white" />
        </clipPath>
    </defs>
</svg>