<svg width="440" height="253" viewBox="0 0 440 253" fill="none" xmlns="http://www.w3.org/2000/svg">
    <g clip-path="url(#clip0_74_15)">
        <rect width="440" height="253" fill="#27272A" />
        <rect x="90.5" y="63.5" width="258" height="126" rx="5.5" fill="#71717A" fill-opacity="0.25"
            stroke="#575757" />
        <line x1="91" y1="98.5" x2="348" y2="98.5" stroke="#575757" />
        <line x1="91" y1="153.5" x2="348" y2="153.5" stroke="#575757" />
        <rect x="128" y="79" width="158" height="3" rx="1.5" fill="#A1A1AA" />
        <path d="M103 78.5L108 83.5L113 78.5" stroke="#808080" stroke-width="2"
            stroke-linecap="round" stroke-linejoin="round" />
        <rect x="129" y="117" width="175" height="3" rx="1.5" fill="#A1A1AA" />
        <rect x="129" y="126" width="116" height="3" rx="1.5" fill="#525359" />
        <rect x="129" y="134" width="132" height="3" rx="1.5" fill="#525359" />
        <rect x="129" y="142" width="94" height="3" rx="1.5" fill="#525359" />
        <path d="M114 121.5L109 116.5L104 121.5" stroke="#808080" stroke-width="2"
            stroke-linecap="round" stroke-linejoin="round" />
        <rect x="128" y="171" width="147" height="3" rx="1.5" fill="#A1A1AA" />
        <path d="M103 169.5L108 174.5L113 169.5" stroke="#808080" stroke-width="2"
            stroke-linecap="round" stroke-linejoin="round" />
        <rect x="440" y="52" width="1" height="440" transform="rotate(90 440 52)"
            fill="url(#paint0_linear_74_15)" />
        <circle cx="79.5" cy="51.5" r="8" stroke="#7B7B7B" />
        <circle cx="359.5" cy="52.5" r="8" stroke="#7B7B7B" />
        <rect x="440" y="200" width="1" height="440" transform="rotate(90 440 200)"
            fill="url(#paint1_linear_74_15)" />
        <circle cx="79.5" cy="200.5" r="8" stroke="#7B7B7B" />
        <circle cx="359.5" cy="200.5" r="8" stroke="#7B7B7B" />
        <rect x="359" width="1" height="253" fill="url(#paint2_linear_74_15)" />
        <rect x="79" width="1" height="253" fill="url(#paint3_linear_74_15)" />
    </g>
    <defs>
        <linearGradient id="paint0_linear_74_15" x1="440.5" y1="52" x2="440.5" y2="492"
            gradientUnits="userSpaceOnUse">
            <stop stop-color="#A1A1AA" stop-opacity="0" />
            <stop offset="0.5" stop-color="#A1A1AA" />
            <stop offset="1" stop-color="#A1A1AA" stop-opacity="0" />
        </linearGradient>
        <linearGradient id="paint1_linear_74_15" x1="440.5" y1="200" x2="440.5" y2="640"
            gradientUnits="userSpaceOnUse">
            <stop stop-color="#A1A1AA" stop-opacity="0" />
            <stop offset="0.5" stop-color="#A1A1AA" />
            <stop offset="1" stop-color="#A1A1AA" stop-opacity="0" />
        </linearGradient>
        <linearGradient id="paint2_linear_74_15" x1="359.5" y1="0" x2="359.5" y2="253"
            gradientUnits="userSpaceOnUse">
            <stop stop-color="#A1A1AA" stop-opacity="0" />
            <stop offset="0.5" stop-color="#A1A1AA" />
            <stop offset="1" stop-color="#A1A1AA" stop-opacity="0" />
        </linearGradient>
        <linearGradient id="paint3_linear_74_15" x1="79.5" y1="0" x2="79.5" y2="253"
            gradientUnits="userSpaceOnUse">
            <stop stop-color="#A1A1AA" stop-opacity="0" />
            <stop offset="0.5" stop-color="#A1A1AA" />
            <stop offset="1" stop-color="#A1A1AA" stop-opacity="0" />
        </linearGradient>
        <clipPath id="clip0_74_15">
            <rect width="440" height="253" fill="white" />
        </clipPath>
    </defs>
</svg>