<svg width="440" height="253" viewBox="0 0 440 253" fill="none" xmlns="http://www.w3.org/2000/svg">
    <g clip-path="url(#clip0_77_233)">
        <rect width="440" height="253" fill="white" />
        <g clip-path="url(#clip1_77_233)">
            <rect width="440" height="253" fill="#27272A" />
            <rect x="440" y="34" width="1" height="440" transform="rotate(90 440 34)"
                fill="url(#paint0_linear_77_233)" />
            <circle cx="47.5" cy="34.5" r="8" stroke="#7B7B7B" />
            <circle cx="392.5" cy="34.5" r="8" stroke="#7B7B7B" />
            <rect x="392" width="1" height="253" fill="url(#paint1_linear_77_233)" />
            <rect x="47" y="1" width="1" height="253" fill="url(#paint2_linear_77_233)" />
        </g>
        <g filter="url(#filter0_d_77_233)">
            <path
                d="M58 51C58 47.6863 60.6863 45 64 45H376C379.314 45 382 47.6863 382 51V253H58V51Z"
                fill="#71717A" fill-opacity="0.25" shape-rendering="crispEdges" />
            <path
                d="M64 45.5H376C379.038 45.5 381.5 47.9624 381.5 51V252.5H58.5V51C58.5 47.9624 60.9624 45.5 64 45.5Z"
                stroke="#575757" shape-rendering="crispEdges" />
            <line x1="59" y1="57.5" x2="381" y2="57.5" stroke="#575757" />
            <circle cx="65.5" cy="51.5" r="2.5" fill="#EB6352" />
            <circle cx="72.5" cy="51.5" r="2.5" fill="#F3B83F" />
            <circle cx="79.5" cy="51.5" r="2.5" fill="#55BB46" />
            <circle cx="77" cy="75" r="8" fill="#27272A" />
            <rect x="91" y="73" width="45" height="4" rx="2" fill="#27272A" />
            <rect x="68" y="102" width="68" height="11" rx="2" fill="#27272A" />
            <rect x="68" y="123" width="68" height="11" rx="2" fill="#27272A" />
            <rect x="68" y="143" width="68" height="11" rx="2" fill="#27272A" />
            <rect x="68" y="161" width="68" height="11" rx="2" fill="#27272A" />
            <rect x="68" y="182" width="68" height="11" rx="2" fill="#27272A" />
            <rect x="68" y="202" width="68" height="11" rx="2" fill="#27272A" />
            <rect x="305" y="123" width="68" height="117" rx="2" fill="#27272A" />
            <g clip-path="url(#clip2_77_233)">
                <rect x="153" y="67" width="219" height="20" rx="4" fill="#09090B" />
                <rect x="366.782" y="74.4575" width="0.579225" height="7.52993" rx="0.289613"
                    transform="rotate(45 366.782 74.4575)" fill="#D9D9D9" />
                <rect x="361.867" y="74.4575" width="7.52993" height="0.579225" rx="0.289613"
                    transform="rotate(45 361.867 74.4575)" fill="#D9D9D9" />
                <path
                    d="M172 74.5C172 73.6716 172.672 73 173.5 73H222.5C223.328 73 224 73.6716 224 74.5C224 75.3284 223.328 76 222.5 76H173.5C172.672 76 172 75.3284 172 74.5Z"
                    fill="#D9D9D9" />
                <rect x="172" y="78" width="104" height="2" rx="1" fill="#71717A" />
                <g filter="url(#filter1_d_77_233)">
                    <rect x="336" y="73" width="18" height="8" rx="2" fill="#FAFAFA"
                        shape-rendering="crispEdges" />
                    <path
                        d="M339 77C339 76.4477 339.448 76 340 76H350C350.552 76 351 76.4477 351 77C351 77.5523 350.552 78 350 78H340C339.448 78 339 77.5523 339 77Z"
                        fill="#18181B" />
                </g>
            </g>
            <rect x="153.5" y="67.5" width="218" height="19" rx="3.5" stroke="#27272A" />
            <line x1="145.5" y1="57" x2="145.5" y2="253" stroke="#575757" />
        </g>
        <rect x="158" y="72" width="10" height="10" rx="3" fill="#27272A" />
        <g clip-path="url(#clip3_77_233)">
            <path
                d="M163 79.5C164.381 79.5 165.5 78.3807 165.5 77C165.5 75.6193 164.381 74.5 163 74.5C161.619 74.5 160.5 75.6193 160.5 77C160.5 78.3807 161.619 79.5 163 79.5Z"
                stroke="#DC1818" stroke-width="0.666667" stroke-linecap="round"
                stroke-linejoin="round" />
            <path d="M163 76V77" stroke="#DC1818" stroke-width="0.666667" stroke-linecap="round"
                stroke-linejoin="round" />
            <path d="M163 78H163.003" stroke="#DC1818" stroke-width="0.666667"
                stroke-linecap="round" stroke-linejoin="round" />
        </g>
        <rect y="178" width="440" height="77" fill="url(#paint3_linear_77_233)" />
    </g>
    <defs>
        <filter id="filter0_d_77_233" x="56" y="44" width="328" height="212"
            filterUnits="userSpaceOnUse" color-interpolation-filters="sRGB">
            <feFlood flood-opacity="0" result="BackgroundImageFix" />
            <feColorMatrix in="SourceAlpha" type="matrix"
                values="0 0 0 0 0 0 0 0 0 0 0 0 0 0 0 0 0 0 127 0" result="hardAlpha" />
            <feOffset dy="1" />
            <feGaussianBlur stdDeviation="1" />
            <feComposite in2="hardAlpha" operator="out" />
            <feColorMatrix type="matrix"
                values="0 0 0 0 0.0392157 0 0 0 0 0.0496732 0 0 0 0 0.0705882 0 0 0 0.05 0" />
            <feBlend mode="normal" in2="BackgroundImageFix" result="effect1_dropShadow_77_233" />
            <feBlend mode="normal" in="SourceGraphic" in2="effect1_dropShadow_77_233" result="shape" />
        </filter>
        <filter id="filter1_d_77_233" x="334" y="72" width="22" height="12"
            filterUnits="userSpaceOnUse" color-interpolation-filters="sRGB">
            <feFlood flood-opacity="0" result="BackgroundImageFix" />
            <feColorMatrix in="SourceAlpha" type="matrix"
                values="0 0 0 0 0 0 0 0 0 0 0 0 0 0 0 0 0 0 127 0" result="hardAlpha" />
            <feOffset dy="1" />
            <feGaussianBlur stdDeviation="1" />
            <feComposite in2="hardAlpha" operator="out" />
            <feColorMatrix type="matrix"
                values="0 0 0 0 0.0392157 0 0 0 0 0.0509804 0 0 0 0 0.0705882 0 0 0 0.25 0" />
            <feBlend mode="normal" in2="BackgroundImageFix" result="effect1_dropShadow_77_233" />
            <feBlend mode="normal" in="SourceGraphic" in2="effect1_dropShadow_77_233" result="shape" />
        </filter>
        <linearGradient id="paint0_linear_77_233" x1="440.5" y1="34" x2="440.5" y2="474"
            gradientUnits="userSpaceOnUse">
            <stop stop-color="#A1A1AA" stop-opacity="0" />
            <stop offset="0.5" stop-color="#A1A1AA" />
            <stop offset="1" stop-color="#A1A1AA" stop-opacity="0" />
        </linearGradient>
        <linearGradient id="paint1_linear_77_233" x1="392.5" y1="0" x2="392.5" y2="253"
            gradientUnits="userSpaceOnUse">
            <stop stop-color="#A1A1AA" stop-opacity="0" />
            <stop offset="0.5" stop-color="#A1A1AA" />
            <stop offset="1" stop-color="#A1A1AA" stop-opacity="0" />
        </linearGradient>
        <linearGradient id="paint2_linear_77_233" x1="47.5" y1="1" x2="47.5" y2="254"
            gradientUnits="userSpaceOnUse">
            <stop stop-color="#A1A1AA" stop-opacity="0" />
            <stop offset="0.5" stop-color="#A1A1AA" />
            <stop offset="1" stop-color="#A1A1AA" stop-opacity="0" />
        </linearGradient>
        <linearGradient id="paint3_linear_77_233" x1="220" y1="178" x2="220" y2="255"
            gradientUnits="userSpaceOnUse">
            <stop stop-color="#383838" stop-opacity="0" />
            <stop offset="1" stop-color="#27272A" />
        </linearGradient>
        <clipPath id="clip0_77_233">
            <rect width="440" height="253" fill="white" />
        </clipPath>
        <clipPath id="clip1_77_233">
            <rect width="440" height="253" fill="white" />
        </clipPath>
        <clipPath id="clip2_77_233">
            <rect x="153" y="67" width="219" height="20" rx="4" fill="white" />
        </clipPath>
        <clipPath id="clip3_77_233">
            <rect width="6" height="6" fill="white" transform="translate(160 74)" />
        </clipPath>
    </defs>
</svg>