<svg width="440" height="253" viewBox="0 0 440 253" fill="none" xmlns="http://www.w3.org/2000/svg">
    <g clip-path="url(#clip0_78_659)">
        <rect width="440" height="253" fill="#27272A" />
        <g filter="url(#filter0_d_78_659)">
            <path
                d="M223 113C223 109.686 225.686 107 229 107H318C321.314 107 324 109.686 324 113V141C324 144.314 321.314 147 318 147H229C225.686 147 223 144.314 223 141V113Z"
                fill="#FAFAFA" shape-rendering="crispEdges" />
            <g clip-path="url(#clip1_78_659)">
                <path
                    d="M249 132C251.761 132 254 129.761 254 127C254 124.239 251.761 122 249 122C246.239 122 244 124.239 244 127C244 129.761 246.239 132 249 132Z"
                    stroke="#09090B" stroke-width="1.33" stroke-linecap="round"
                    stroke-linejoin="round" />
            </g>
            <path
                d="M260 127C260 125.343 261.343 124 263 124H301C302.657 124 304 125.343 304 127C304 128.657 302.657 130 301 130H263C261.343 130 260 128.657 260 127Z"
                fill="#09090B" />
        </g>
        <g filter="url(#filter1_d_78_659)">
            <path
                d="M116 113C116 109.686 118.686 107 122 107H211C214.314 107 217 109.686 217 113V141C217 144.314 214.314 147 211 147H122C118.686 147 116 144.314 116 141V113Z"
                fill="#71717A" fill-opacity="0.25" shape-rendering="crispEdges" />
            <path
                d="M122 107.5H211C214.038 107.5 216.5 109.962 216.5 113V141C216.5 144.038 214.038 146.5 211 146.5H122C118.962 146.5 116.5 144.038 116.5 141V113C116.5 109.962 118.962 107.5 122 107.5Z"
                stroke="#575757" shape-rendering="crispEdges" />
            <rect x="140" y="124" width="54" height="6" rx="3" fill="#F4F4F5" />
        </g>
        <rect x="440" y="96" width="1" height="440" transform="rotate(90 440 96)"
            fill="url(#paint0_linear_78_659)" />
        <circle cx="334.5" cy="96.5" r="8" stroke="#7B7B7B" />
        <circle cx="334.5" cy="157.5" r="8" stroke="#7B7B7B" />
        <circle cx="105.5" cy="96.5" r="8" stroke="#7B7B7B" />
        <circle cx="105.5" cy="157.5" r="8" stroke="#7B7B7B" />
        <rect x="440" y="157" width="1" height="440" transform="rotate(90 440 157)"
            fill="url(#paint1_linear_78_659)" />
        <rect x="334" width="1" height="253" fill="url(#paint2_linear_78_659)" />
        <path d="M105 0H106V253H105V0Z" fill="url(#paint3_linear_78_659)" />
    </g>
    <defs>
        <filter id="filter0_d_78_659" x="221" y="106" width="105" height="44"
            filterUnits="userSpaceOnUse" color-interpolation-filters="sRGB">
            <feFlood flood-opacity="0" result="BackgroundImageFix" />
            <feColorMatrix in="SourceAlpha" type="matrix"
                values="0 0 0 0 0 0 0 0 0 0 0 0 0 0 0 0 0 0 127 0" result="hardAlpha" />
            <feOffset dy="1" />
            <feGaussianBlur stdDeviation="1" />
            <feComposite in2="hardAlpha" operator="out" />
            <feColorMatrix type="matrix"
                values="0 0 0 0 0.0392157 0 0 0 0 0.0509804 0 0 0 0 0.0705882 0 0 0 0.25 0" />
            <feBlend mode="normal" in2="BackgroundImageFix" result="effect1_dropShadow_78_659" />
            <feBlend mode="normal" in="SourceGraphic" in2="effect1_dropShadow_78_659" result="shape" />
        </filter>
        <filter id="filter1_d_78_659" x="114" y="106" width="105" height="44"
            filterUnits="userSpaceOnUse" color-interpolation-filters="sRGB">
            <feFlood flood-opacity="0" result="BackgroundImageFix" />
            <feColorMatrix in="SourceAlpha" type="matrix"
                values="0 0 0 0 0 0 0 0 0 0 0 0 0 0 0 0 0 0 127 0" result="hardAlpha" />
            <feOffset dy="1" />
            <feGaussianBlur stdDeviation="1" />
            <feComposite in2="hardAlpha" operator="out" />
            <feColorMatrix type="matrix"
                values="0 0 0 0 0.0392157 0 0 0 0 0.0509804 0 0 0 0 0.0705882 0 0 0 0.1 0" />
            <feBlend mode="normal" in2="BackgroundImageFix" result="effect1_dropShadow_78_659" />
            <feBlend mode="normal" in="SourceGraphic" in2="effect1_dropShadow_78_659" result="shape" />
        </filter>
        <linearGradient id="paint0_linear_78_659" x1="440.5" y1="96" x2="440.5" y2="536"
            gradientUnits="userSpaceOnUse">
            <stop stop-color="#A1A1AA" stop-opacity="0" />
            <stop offset="0.5" stop-color="#A1A1AA" />
            <stop offset="1" stop-color="#A1A1AA" stop-opacity="0" />
        </linearGradient>
        <linearGradient id="paint1_linear_78_659" x1="440.5" y1="157" x2="440.5" y2="597"
            gradientUnits="userSpaceOnUse">
            <stop stop-color="#A1A1AA" stop-opacity="0" />
            <stop offset="0.5" stop-color="#A1A1AA" />
            <stop offset="1" stop-color="#A1A1AA" stop-opacity="0" />
        </linearGradient>
        <linearGradient id="paint2_linear_78_659" x1="334.5" y1="0" x2="334.5" y2="253"
            gradientUnits="userSpaceOnUse">
            <stop stop-color="#A1A1AA" stop-opacity="0" />
            <stop offset="0.5" stop-color="#A1A1AA" />
            <stop offset="1" stop-color="#A1A1AA" stop-opacity="0" />
        </linearGradient>
        <linearGradient id="paint3_linear_78_659" x1="104.5" y1="0" x2="104.5" y2="253"
            gradientUnits="userSpaceOnUse">
            <stop stop-color="#A1A1AA" stop-opacity="0" />
            <stop offset="0.5" stop-color="#A1A1AA" />
            <stop offset="1" stop-color="#A1A1AA" stop-opacity="0" />
        </linearGradient>
        <clipPath id="clip0_78_659">
            <rect width="440" height="253" fill="white" />
        </clipPath>
        <clipPath id="clip1_78_659">
            <rect width="12" height="12" fill="white" transform="translate(243 121)" />
        </clipPath>
    </defs>
</svg>