<svg width="440" height="253" viewBox="0 0 440 253" fill="none" xmlns="http://www.w3.org/2000/svg">
    <g clip-path="url(#clip0_75_109)">
        <rect width="440" height="253" fill="white" />
        <rect width="440" height="253" fill="#27272A" />
        <g filter="url(#filter0_d_75_109)">
            <path
                d="M169 113C169 109.686 171.686 107 175 107H264C267.314 107 270 109.686 270 113V141C270 144.314 267.314 147 264 147H175C171.686 147 169 144.314 169 141V113Z"
                fill="#71717A" fill-opacity="0.25" shape-rendering="crispEdges" />
            <path
                d="M175 107.5H264C267.038 107.5 269.5 109.962 269.5 113V141C269.5 144.038 267.038 146.5 264 146.5H175C171.962 146.5 169.5 144.038 169.5 141V113C169.5 109.962 171.962 107.5 175 107.5Z"
                stroke="#575757" shape-rendering="crispEdges" />
            <rect x="193" y="124" width="54" height="6" rx="3" fill="#A1A1AA" />
        </g>
        <rect x="440" y="96" width="1" height="440" transform="rotate(90 440 96)"
            fill="url(#paint0_linear_75_109)" />
        <circle cx="158.5" cy="96.5" r="8" stroke="#7B7B7B" />
        <circle cx="279.5" cy="96.5" r="8" stroke="#7B7B7B" />
        <rect x="440" y="157" width="1" height="440" transform="rotate(90 440 157)"
            fill="url(#paint1_linear_75_109)" />
        <circle cx="158.5" cy="157.5" r="8" stroke="#7B7B7B" />
        <circle cx="279.5" cy="157.5" r="8" stroke="#7B7B7B" />
        <rect x="279" width="1" height="253" fill="url(#paint2_linear_75_109)" />
        <rect x="158" width="1" height="253" fill="url(#paint3_linear_75_109)" />
        <rect x="209" y="93.3135" width="16" height="16" transform="rotate(-45 209 93.3135)"
            fill="#FAFAFA" />
        <rect x="132" y="49" width="175" height="47" rx="16" fill="#FAFAFA" />
        <rect x="165" y="70" width="110" height="6" rx="3" fill="#18181B" />
    </g>
    <defs>
        <filter id="filter0_d_75_109" x="167" y="106" width="105" height="44"
            filterUnits="userSpaceOnUse" color-interpolation-filters="sRGB">
            <feFlood flood-opacity="0" result="BackgroundImageFix" />
            <feColorMatrix in="SourceAlpha" type="matrix"
                values="0 0 0 0 0 0 0 0 0 0 0 0 0 0 0 0 0 0 127 0" result="hardAlpha" />
            <feOffset dy="1" />
            <feGaussianBlur stdDeviation="1" />
            <feComposite in2="hardAlpha" operator="out" />
            <feColorMatrix type="matrix"
                values="0 0 0 0 0.0392157 0 0 0 0 0.0509804 0 0 0 0 0.0705882 0 0 0 0.1 0" />
            <feBlend mode="normal" in2="BackgroundImageFix" result="effect1_dropShadow_75_109" />
            <feBlend mode="normal" in="SourceGraphic" in2="effect1_dropShadow_75_109" result="shape" />
        </filter>
        <linearGradient id="paint0_linear_75_109" x1="440.5" y1="96" x2="440.5" y2="536"
            gradientUnits="userSpaceOnUse">
            <stop stop-color="#A1A1AA" stop-opacity="0" />
            <stop offset="0.5" stop-color="#A1A1AA" />
            <stop offset="1" stop-color="#A1A1AA" stop-opacity="0" />
        </linearGradient>
        <linearGradient id="paint1_linear_75_109" x1="440.5" y1="157" x2="440.5" y2="597"
            gradientUnits="userSpaceOnUse">
            <stop stop-color="#A1A1AA" stop-opacity="0" />
            <stop offset="0.5" stop-color="#A1A1AA" />
            <stop offset="1" stop-color="#A1A1AA" stop-opacity="0" />
        </linearGradient>
        <linearGradient id="paint2_linear_75_109" x1="279.5" y1="0" x2="279.5" y2="253"
            gradientUnits="userSpaceOnUse">
            <stop stop-color="#A1A1AA" stop-opacity="0" />
            <stop offset="0.5" stop-color="#A1A1AA" />
            <stop offset="1" stop-color="#A1A1AA" stop-opacity="0" />
        </linearGradient>
        <linearGradient id="paint3_linear_75_109" x1="158.5" y1="0" x2="158.5" y2="253"
            gradientUnits="userSpaceOnUse">
            <stop stop-color="#A1A1AA" stop-opacity="0" />
            <stop offset="0.5" stop-color="#A1A1AA" />
            <stop offset="1" stop-color="#A1A1AA" stop-opacity="0" />
        </linearGradient>
        <clipPath id="clip0_75_109">
            <rect width="440" height="253" fill="white" />
        </clipPath>
    </defs>
</svg>