<svg width="440" height="253" viewBox="0 0 440 253" fill="none" xmlns="http://www.w3.org/2000/svg">
    <g clip-path="url(#clip0_77_523)">
        <rect width="440" height="253" fill="#27272A" />
        <g filter="url(#filter0_d_77_523)">
            <rect x="115" y="130" width="210" height="56" rx="6" fill="#71717A" fill-opacity="0.25"
                shape-rendering="crispEdges" />
            <rect x="115.5" y="130.5" width="209" height="55" rx="5.5" stroke="#575757"
                shape-rendering="crispEdges" />
            <rect x="125" y="140" width="20" height="20" rx="2" fill="#A1A1AA" />
            <rect x="151" y="148" width="96" height="4" rx="2" fill="#808080" />
            <rect x="151" y="163" width="131" height="4" rx="2" fill="#585858" />
            <rect x="151" y="172" width="131" height="4" rx="2" fill="#585858" />
            <rect x="300" y="144" width="11" height="11" rx="2" fill="#FAFAFA" />
            <path
                d="M302.354 149.596C302.158 149.401 302.158 149.084 302.354 148.889C302.549 148.694 302.865 148.694 303.061 148.889L305.536 151.364C305.145 151.755 304.512 151.755 304.121 151.364L302.354 149.596Z"
                fill="#09090B" />
            <path
                d="M304.828 150.657L308.01 147.475C308.206 147.28 308.522 147.28 308.718 147.475C308.913 147.67 308.913 147.987 308.718 148.182L305.536 151.364L304.828 150.657Z"
                fill="#09090B" />
        </g>
        <g filter="url(#filter1_d_77_523)">
            <rect x="115" y="194" width="210" height="56" rx="6" fill="#71717A" fill-opacity="0.25"
                shape-rendering="crispEdges" />
            <rect x="115.5" y="194.5" width="209" height="55" rx="5.5" stroke="#575757"
                shape-rendering="crispEdges" />
            <rect x="125" y="204" width="20" height="20" rx="2" fill="#A1A1AA" />
            <rect x="151" y="212" width="96" height="4" rx="2" fill="#808080" />
            <rect x="151" y="227" width="131" height="4" rx="2" fill="#585858" />
            <rect x="151" y="236" width="131" height="4" rx="2" fill="#585858" />
            <rect x="300" y="208" width="11" height="11" rx="2" fill="#FAFAFA" />
            <path
                d="M302.354 213.596C302.158 213.401 302.158 213.084 302.354 212.889C302.549 212.694 302.865 212.694 303.061 212.889L305.536 215.364C305.145 215.755 304.512 215.755 304.121 215.364L302.354 213.596Z"
                fill="#09090B" />
            <path
                d="M304.828 214.657L308.01 211.475C308.206 211.28 308.522 211.28 308.718 211.475C308.913 211.67 308.913 211.987 308.718 212.182L305.536 215.364L304.828 214.657Z"
                fill="#09090B" />
        </g>
        <g filter="url(#filter2_d_77_523)">
            <rect x="115" y="66" width="210" height="56" rx="6" fill="#71717A" fill-opacity="0.25"
                shape-rendering="crispEdges" />
            <rect x="115.5" y="66.5" width="209" height="55" rx="5.5" stroke="#FAFAFA"
                shape-rendering="crispEdges" />
            <rect x="125" y="76" width="20" height="20" rx="2" fill="#A1A1AA" />
            <rect x="151" y="84" width="96" height="4" rx="2" fill="#808080" />
            <rect x="151" y="99" width="131" height="4" rx="2" fill="#585858" />
            <rect x="151" y="108" width="131" height="4" rx="2" fill="#585858" />
            <rect x="300" y="80" width="11" height="11" rx="2" fill="#FAFAFA" />
            <path
                d="M302.354 85.5962C302.158 85.401 302.158 85.0844 302.354 84.8891C302.549 84.6939 302.865 84.6939 303.061 84.8891L305.536 87.364C305.145 87.7545 304.512 87.7545 304.121 87.364L302.354 85.5962Z"
                fill="#09090B" />
            <path
                d="M304.828 86.6569L308.01 83.4749C308.206 83.2796 308.522 83.2796 308.718 83.4749C308.913 83.6701 308.913 83.9867 308.718 84.182L305.536 87.364L304.828 86.6569Z"
                fill="#09090B" />
        </g>
        <rect x="440" y="55" width="1" height="440" transform="rotate(90 440 55)"
            fill="url(#paint0_linear_77_523)" />
        <circle cx="104.5" cy="55.5" r="8" stroke="#7B7B7B" />
        <circle cx="335.5" cy="55.5" r="8" stroke="#7B7B7B" />
        <rect x="335" width="1" height="253" fill="url(#paint1_linear_77_523)" />
        <rect x="104" y="1" width="1" height="253" fill="url(#paint2_linear_77_523)" />
        <rect y="177" width="440" height="77" fill="url(#paint3_linear_77_523)" />
    </g>
    <defs>
        <filter id="filter0_d_77_523" x="113" y="129" width="214" height="60"
            filterUnits="userSpaceOnUse" color-interpolation-filters="sRGB">
            <feFlood flood-opacity="0" result="BackgroundImageFix" />
            <feColorMatrix in="SourceAlpha" type="matrix"
                values="0 0 0 0 0 0 0 0 0 0 0 0 0 0 0 0 0 0 127 0" result="hardAlpha" />
            <feOffset dy="1" />
            <feGaussianBlur stdDeviation="1" />
            <feComposite in2="hardAlpha" operator="out" />
            <feColorMatrix type="matrix"
                values="0 0 0 0 0.0392157 0 0 0 0 0.0496732 0 0 0 0 0.0705882 0 0 0 0.05 0" />
            <feBlend mode="normal" in2="BackgroundImageFix" result="effect1_dropShadow_77_523" />
            <feBlend mode="normal" in="SourceGraphic" in2="effect1_dropShadow_77_523" result="shape" />
        </filter>
        <filter id="filter1_d_77_523" x="113" y="193" width="214" height="60"
            filterUnits="userSpaceOnUse" color-interpolation-filters="sRGB">
            <feFlood flood-opacity="0" result="BackgroundImageFix" />
            <feColorMatrix in="SourceAlpha" type="matrix"
                values="0 0 0 0 0 0 0 0 0 0 0 0 0 0 0 0 0 0 127 0" result="hardAlpha" />
            <feOffset dy="1" />
            <feGaussianBlur stdDeviation="1" />
            <feComposite in2="hardAlpha" operator="out" />
            <feColorMatrix type="matrix"
                values="0 0 0 0 0.0392157 0 0 0 0 0.0496732 0 0 0 0 0.0705882 0 0 0 0.05 0" />
            <feBlend mode="normal" in2="BackgroundImageFix" result="effect1_dropShadow_77_523" />
            <feBlend mode="normal" in="SourceGraphic" in2="effect1_dropShadow_77_523" result="shape" />
        </filter>
        <filter id="filter2_d_77_523" x="113" y="65" width="214" height="60"
            filterUnits="userSpaceOnUse" color-interpolation-filters="sRGB">
            <feFlood flood-opacity="0" result="BackgroundImageFix" />
            <feColorMatrix in="SourceAlpha" type="matrix"
                values="0 0 0 0 0 0 0 0 0 0 0 0 0 0 0 0 0 0 127 0" result="hardAlpha" />
            <feOffset dy="1" />
            <feGaussianBlur stdDeviation="1" />
            <feComposite in2="hardAlpha" operator="out" />
            <feColorMatrix type="matrix"
                values="0 0 0 0 0.0392157 0 0 0 0 0.0496732 0 0 0 0 0.0705882 0 0 0 0.05 0" />
            <feBlend mode="normal" in2="BackgroundImageFix" result="effect1_dropShadow_77_523" />
            <feBlend mode="normal" in="SourceGraphic" in2="effect1_dropShadow_77_523" result="shape" />
        </filter>
        <linearGradient id="paint0_linear_77_523" x1="440.5" y1="55" x2="440.5" y2="495"
            gradientUnits="userSpaceOnUse">
            <stop stop-color="#A1A1AA" stop-opacity="0" />
            <stop offset="0.5" stop-color="#A1A1AA" />
            <stop offset="1" stop-color="#A1A1AA" stop-opacity="0" />
        </linearGradient>
        <linearGradient id="paint1_linear_77_523" x1="335.5" y1="0" x2="335.5" y2="253"
            gradientUnits="userSpaceOnUse">
            <stop stop-color="#A1A1AA" stop-opacity="0" />
            <stop offset="0.5" stop-color="#A1A1AA" />
            <stop offset="1" stop-color="#A1A1AA" stop-opacity="0" />
        </linearGradient>
        <linearGradient id="paint2_linear_77_523" x1="104.5" y1="1" x2="104.5" y2="254"
            gradientUnits="userSpaceOnUse">
            <stop stop-color="#A1A1AA" stop-opacity="0" />
            <stop offset="0.5" stop-color="#A1A1AA" />
            <stop offset="1" stop-color="#A1A1AA" stop-opacity="0" />
        </linearGradient>
        <linearGradient id="paint3_linear_77_523" x1="220" y1="177" x2="220" y2="254"
            gradientUnits="userSpaceOnUse">
            <stop stop-color="#383838" stop-opacity="0" />
            <stop offset="1" stop-color="#27272A" />
        </linearGradient>
        <clipPath id="clip0_77_523">
            <rect width="440" height="253" fill="white" />
        </clipPath>
    </defs>
</svg>