<svg width="440" height="253" viewBox="0 0 440 253" fill="none" xmlns="http://www.w3.org/2000/svg">
    <g clip-path="url(#clip0_224_50)">
        <rect width="440" height="253" fill="#F4F4F5" />
        <rect x="440" y="74" width="1" height="440" transform="rotate(90 440 74)"
            fill="url(#paint0_linear_224_50)" />
        <circle cx="128.5" cy="74.5" r="8" stroke="#DFDFDF" stroke-opacity="0.5" />
        <circle cx="311.5" cy="74.5" r="8" stroke="#DFDFDF" stroke-opacity="0.5" />
        <rect x="440" y="127" width="1" height="440" transform="rotate(90 440 127)"
            fill="url(#paint1_linear_224_50)" />
        <circle cx="128.5" cy="127.5" r="8" stroke="#DFDFDF" stroke-opacity="0.5" />
        <circle cx="311.5" cy="127.5" r="8" stroke="#DFDFDF" stroke-opacity="0.5" />
        <rect x="311" width="1" height="253" fill="url(#paint2_linear_224_50)" />
        <rect x="128" width="1" height="253" fill="url(#paint3_linear_224_50)" />
        <path
            d="M155 85.5C163.56 85.5 170.5 92.4396 170.5 101C170.5 109.56 163.56 116.5 155 116.5C146.44 116.5 139.5 109.56 139.5 101C139.5 92.4396 146.44 85.5 155 85.5Z"
            fill="#D5D5D5" />
        <path
            d="M155 85.5C163.56 85.5 170.5 92.4396 170.5 101C170.5 109.56 163.56 116.5 155 116.5C146.44 116.5 139.5 109.56 139.5 101C139.5 92.4396 146.44 85.5 155 85.5Z"
            stroke="#E9EAEB" />
        <path
            d="M159.667 107V105.667C159.667 104.959 159.386 104.281 158.886 103.781C158.386 103.281 157.707 103 157 103H153C152.293 103 151.614 103.281 151.114 103.781C150.614 104.281 150.333 104.959 150.333 105.667V107"
            stroke="#636363" stroke-width="1.33333" stroke-linecap="round" stroke-linejoin="round" />
        <path
            d="M155 100.333C156.473 100.333 157.667 99.1394 157.667 97.6667C157.667 96.1939 156.473 95 155 95C153.527 95 152.333 96.1939 152.333 97.6667C152.333 99.1394 153.527 100.333 155 100.333Z"
            stroke="#636363" stroke-width="1.33333" stroke-linecap="round" stroke-linejoin="round" />
        <rect x="139.5" y="121.5" width="161" height="81" rx="5.5" fill="white" stroke="#E9EAEB" />
        <rect x="151" y="160" width="69" height="4" rx="2" fill="#D9D9D9" />
        <path d="M282 188L286 184L282 180" stroke="#808080" stroke-width="1.33333"
            stroke-linecap="round" stroke-linejoin="round" />
        <rect x="151" y="182" width="90" height="4" rx="2" fill="#D9D9D9" />
        <path d="M282 144L286 140L282 136" stroke="#808080" stroke-width="1.33333"
            stroke-linecap="round" stroke-linejoin="round" />
        <rect x="151" y="138" width="109" height="4" rx="2" fill="#D9D9D9" />
    </g>
    <defs>
        <linearGradient id="paint0_linear_224_50" x1="440.5" y1="74" x2="440.5" y2="514"
            gradientUnits="userSpaceOnUse">
            <stop stop-color="#F5F5F5" />
            <stop offset="0.5" stop-color="#DFDFDF" />
            <stop offset="1" stop-color="#F5F5F5" />
        </linearGradient>
        <linearGradient id="paint1_linear_224_50" x1="440.5" y1="127" x2="440.5" y2="567"
            gradientUnits="userSpaceOnUse">
            <stop stop-color="#F5F5F5" />
            <stop offset="0.5" stop-color="#DFDFDF" />
            <stop offset="1" stop-color="#F5F5F5" />
        </linearGradient>
        <linearGradient id="paint2_linear_224_50" x1="311.5" y1="0" x2="311.5" y2="253"
            gradientUnits="userSpaceOnUse">
            <stop stop-color="#F5F5F5" />
            <stop offset="0.5" stop-color="#DFDFDF" />
            <stop offset="1" stop-color="#F5F5F5" />
        </linearGradient>
        <linearGradient id="paint3_linear_224_50" x1="128.5" y1="0" x2="128.5" y2="253"
            gradientUnits="userSpaceOnUse">
            <stop stop-color="#F5F5F5" />
            <stop offset="0.5" stop-color="#DFDFDF" />
            <stop offset="1" stop-color="#F5F5F5" />
        </linearGradient>
        <clipPath id="clip0_224_50">
            <rect width="440" height="253" fill="white" />
        </clipPath>
    </defs>
</svg>