<svg width="440" height="253" viewBox="0 0 440 253" fill="none" xmlns="http://www.w3.org/2000/svg">
    <g clip-path="url(#clip0_153_74)">
        <rect width="440" height="253" fill="#F4F4F5" />
        <rect x="440" y="63" width="1" height="440" transform="rotate(90 440 63)"
            fill="url(#paint0_linear_153_74)" />
        <circle cx="46.5" cy="63.5" r="8" stroke="#DFDFDF" stroke-opacity="0.5" />
        <circle cx="392.5" cy="63.5" r="8" stroke="#DFDFDF" stroke-opacity="0.5" />
        <rect x="440" y="190" width="1" height="440" transform="rotate(90 440 190)"
            fill="url(#paint1_linear_153_74)" />
        <circle cx="46.5" cy="190.5" r="8" stroke="#DFDFDF" stroke-opacity="0.5" />
        <circle cx="392.5" cy="190.5" r="8" stroke="#DFDFDF" stroke-opacity="0.5" />
        <rect x="392" width="1" height="253" fill="url(#paint2_linear_153_74)" />
        <rect x="46" width="1" height="253" fill="url(#paint3_linear_153_74)" />
        <rect x="57.5" y="74.5" width="324" height="105" rx="5.5" fill="white" stroke="#E9EAEB" />
        <line x1="57" y1="89.5" x2="381" y2="89.5" stroke="#E9EAEB" />
        <line x1="57" y1="119.5" x2="381" y2="119.5" stroke="#E9EAEB" />
        <line x1="57" y1="149.5" x2="381" y2="149.5" stroke="#E9EAEB" />
        <line x1="138.5" y1="75" x2="138.5" y2="179" stroke="#E9EAEB" />
        <line x1="219.5" y1="75" x2="219.5" y2="179" stroke="#E9EAEB" />
        <line x1="300.5" y1="75" x2="300.5" y2="179" stroke="#E9EAEB" />
        <mask id="path-16-inside-1_153_74" fill="white">
            <path d="M57 80C57 76.6863 59.6863 74 63 74H138V89H57V80Z" />
        </mask>
        <path d="M57 80C57 76.6863 59.6863 74 63 74H138V89H57V80Z" fill="#F9F9F9" />
        <path
            d="M56 80C56 76.134 59.134 73 63 73H138V75H63C60.2386 75 58 77.2386 58 80H56ZM138 89H57H138ZM56 89V80C56 76.134 59.134 73 63 73V75C60.2386 75 58 77.2386 58 80V89H56ZM138 74V89V74Z"
            fill="#E9EAEB" mask="url(#path-16-inside-1_153_74)" />
        <mask id="path-18-inside-2_153_74" fill="white">
            <path d="M301 74H376C379.314 74 382 76.6863 382 80V89H301V74Z" />
        </mask>
        <path d="M301 74H376C379.314 74 382 76.6863 382 80V89H301V74Z" fill="#F9F9F9" />
        <path
            d="M301 73H376C379.866 73 383 76.134 383 80H381C381 77.2386 378.761 75 376 75H301V73ZM382 89H301H382ZM301 89V74V89ZM376 73C379.866 73 383 76.134 383 80V89H381V80C381 77.2386 378.761 75 376 75V73Z"
            fill="#E9EAEB" mask="url(#path-18-inside-2_153_74)" />
        <rect x="139" y="75" width="80" height="14" fill="#F9F9F9" />
        <rect x="220" y="75" width="80" height="14" fill="#F9F9F9" />
        <rect x="63" y="80" width="28" height="4" rx="2" fill="#D9D9D9" />
        <rect x="144" y="80" width="28" height="4" rx="2" fill="#D9D9D9" />
        <rect x="225" y="80" width="28" height="4" rx="2" fill="#D9D9D9" />
        <rect x="306" y="80" width="28" height="4" rx="2" fill="#D9D9D9" />
        <rect x="60.5" y="122.5" width="75" height="24" rx="1.5" fill="#F9F9F9" stroke="#D6D6D6" />
        <rect x="64" y="126" width="31" height="2" rx="1" fill="#D9D9D9" />
        <mask id="path-28-inside-3_153_74" fill="white">
            <path
                d="M141 154C141 152.895 141.895 152 143 152H215C216.105 152 217 152.895 217 154V179H141V154Z" />
        </mask>
        <path
            d="M141 154C141 152.895 141.895 152 143 152H215C216.105 152 217 152.895 217 154V179H141V154Z"
            fill="#F9F9F9" />
        <path
            d="M140 154C140 152.343 141.343 151 143 151H215C216.657 151 218 152.343 218 154H216C216 153.448 215.552 153 215 153H143C142.448 153 142 153.448 142 154H140ZM217 179H141H217ZM140 179V154C140 152.343 141.343 151 143 151V153C142.448 153 142 153.448 142 154V179H140ZM215 151C216.657 151 218 152.343 218 154V179H216V154C216 153.448 215.552 153 215 153V151Z"
            fill="#D6D6D6" mask="url(#path-28-inside-3_153_74)" />
        <rect x="145" y="156" width="44" height="2" rx="1" fill="#D9D9D9" />
        <rect x="222.5" y="92.5" width="75" height="84" rx="1.5" fill="#F9F9F9" stroke="#D6D6D6" />
        <rect x="226" y="96" width="44" height="2" rx="1" fill="#D9D9D9" />
        <rect x="303.5" y="92.5" width="75" height="24" rx="1.5" fill="#F9F9F9" stroke="#D6D6D6" />
        <rect x="307" y="96" width="44" height="2" rx="1" fill="#D9D9D9" />
    </g>
    <defs>
        <linearGradient id="paint0_linear_153_74" x1="440.5" y1="63" x2="440.5" y2="503"
            gradientUnits="userSpaceOnUse">
            <stop stop-color="#F5F5F5" />
            <stop offset="0.5" stop-color="#DFDFDF" />
            <stop offset="1" stop-color="#F5F5F5" />
        </linearGradient>
        <linearGradient id="paint1_linear_153_74" x1="440.5" y1="190" x2="440.5" y2="630"
            gradientUnits="userSpaceOnUse">
            <stop stop-color="#F5F5F5" />
            <stop offset="0.5" stop-color="#DFDFDF" />
            <stop offset="1" stop-color="#F5F5F5" />
        </linearGradient>
        <linearGradient id="paint2_linear_153_74" x1="392.5" y1="0" x2="392.5" y2="253"
            gradientUnits="userSpaceOnUse">
            <stop stop-color="#F5F5F5" />
            <stop offset="0.5" stop-color="#DFDFDF" />
            <stop offset="1" stop-color="#F5F5F5" />
        </linearGradient>
        <linearGradient id="paint3_linear_153_74" x1="46.5" y1="0" x2="46.5" y2="253"
            gradientUnits="userSpaceOnUse">
            <stop stop-color="#F5F5F5" />
            <stop offset="0.5" stop-color="#DFDFDF" />
            <stop offset="1" stop-color="#F5F5F5" />
        </linearGradient>
        <clipPath id="clip0_153_74">
            <rect width="440" height="253" fill="white" />
        </clipPath>
    </defs>
</svg>