<svg width="440" height="253" viewBox="0 0 440 253" fill="none" xmlns="http://www.w3.org/2000/svg">
    <g clip-path="url(#clip0_307_352)">
        <rect width="440" height="253" fill="#F5F5F5" />
        <rect x="440" y="97" width="1" height="440" transform="rotate(90 440 97)"
            fill="url(#paint0_linear_307_352)" />
        <rect x="442" y="156" width="1" height="440" transform="rotate(90 442 156)"
            fill="url(#paint1_linear_307_352)" />
        <circle cx="65.5" cy="97.5" r="8" stroke="#DFDFDF" stroke-opacity="0.5" />
        <path
            d="M65.5 148.5C69.9183 148.5 73.5 152.082 73.5 156.5C73.5 160.918 69.9183 164.5 65.5 164.5C61.0817 164.5 57.5 160.918 57.5 156.5C57.5 152.082 61.0817 148.5 65.5 148.5Z"
            stroke="#DFDFDF" stroke-opacity="0.5" />
        <rect x="65" width="1" height="253" fill="url(#paint2_linear_307_352)" />
        <rect x="374" width="1" height="253" fill="url(#paint3_linear_307_352)" />
        <circle cx="374.5" cy="156.5" r="8" stroke="#DFDFDF" stroke-opacity="0.5" />
        <circle cx="374.5" cy="97.5" r="8" stroke="#DFDFDF" stroke-opacity="0.5" />
        <g filter="url(#filter0_d_307_352)">
            <rect x="76" y="108" width="288" height="38" rx="10" fill="white" />
            <rect x="76.5" y="108.5" width="287" height="37" rx="9.5" stroke="#E4E4E7" />
        </g>
        <rect x="85" y="117" width="20" height="20" rx="2" fill="#D9D9D9" />
        <circle cx="345" cy="127" r="10" fill="#D9D9D9" />
    </g>
    <defs>
        <filter id="filter0_d_307_352" x="72" y="104" width="296" height="46"
            filterUnits="userSpaceOnUse" color-interpolation-filters="sRGB">
            <feFlood flood-opacity="0" result="BackgroundImageFix" />
            <feColorMatrix in="SourceAlpha" type="matrix"
                values="0 0 0 0 0 0 0 0 0 0 0 0 0 0 0 0 0 0 127 0" result="hardAlpha" />
            <feOffset />
            <feGaussianBlur stdDeviation="2" />
            <feComposite in2="hardAlpha" operator="out" />
            <feColorMatrix type="matrix" values="0 0 0 0 0 0 0 0 0 0 0 0 0 0 0 0 0 0 0.05 0" />
            <feBlend mode="normal" in2="BackgroundImageFix" result="effect1_dropShadow_307_352" />
            <feBlend mode="normal" in="SourceGraphic" in2="effect1_dropShadow_307_352"
                result="shape" />
        </filter>
        <linearGradient id="paint0_linear_307_352" x1="440.5" y1="97" x2="440.5" y2="537"
            gradientUnits="userSpaceOnUse">
            <stop stop-color="#F5F5F5" />
            <stop offset="0.5" stop-color="#DFDFDF" />
            <stop offset="1" stop-color="#F5F5F5" />
        </linearGradient>
        <linearGradient id="paint1_linear_307_352" x1="442.5" y1="156" x2="442.5" y2="596"
            gradientUnits="userSpaceOnUse">
            <stop stop-color="#F5F5F5" />
            <stop offset="0.5" stop-color="#DFDFDF" />
            <stop offset="1" stop-color="#F5F5F5" />
        </linearGradient>
        <linearGradient id="paint2_linear_307_352" x1="65.5" y1="0" x2="65.5" y2="253"
            gradientUnits="userSpaceOnUse">
            <stop stop-color="#F5F5F5" />
            <stop offset="0.5" stop-color="#DFDFDF" />
            <stop offset="1" stop-color="#F5F5F5" />
        </linearGradient>
        <linearGradient id="paint3_linear_307_352" x1="374.5" y1="0" x2="374.5" y2="253"
            gradientUnits="userSpaceOnUse">
            <stop stop-color="#F5F5F5" />
            <stop offset="0.5" stop-color="#DFDFDF" />
            <stop offset="1" stop-color="#F5F5F5" />
        </linearGradient>
        <clipPath id="clip0_307_352">
            <rect width="440" height="253" fill="white" />
        </clipPath>
    </defs>
</svg>