<svg width="440" height="253" viewBox="0 0 440 253" fill="none" xmlns="http://www.w3.org/2000/svg">
    <g clip-path="url(#clip0_285_139)">
        <rect width="440" height="253" fill="white" />
        <g clip-path="url(#clip1_285_139)">
            <rect width="440" height="253" fill="#F5F5F5" />
            <rect x="81" y="2" width="1" height="253" fill="url(#paint0_linear_285_139)" />
            <rect x="440" y="96" width="1" height="440" transform="rotate(90 440 96)"
                fill="url(#paint1_linear_285_139)" />
            <rect x="440" y="157" width="1" height="440" transform="rotate(90 440 157)"
                fill="url(#paint2_linear_285_139)" />
            <rect x="353" y="7" width="1" height="253" fill="url(#paint3_linear_285_139)" />
            <circle cx="81.5" cy="96.5" r="8" stroke="#DFDFDF" stroke-opacity="0.5" />
            <circle cx="81.5" cy="157.5" r="8" stroke="#DFDFDF" stroke-opacity="0.5" />
            <circle cx="353.5" cy="157.5" r="8" stroke="#DFDFDF" stroke-opacity="0.5" />
        </g>
        <g filter="url(#filter0_d_285_139)">
            <path
                d="M303 113C303 109.686 305.686 107 309 107H337C340.314 107 343 109.686 343 113V141C343 144.314 340.314 147 337 147H309C305.686 147 303 144.314 303 141V113Z"
                fill="#F8F9F9" shape-rendering="crispEdges" />
            <path
                d="M309 107.5H337C340.038 107.5 342.5 109.962 342.5 113V141C342.5 144.038 340.038 146.5 337 146.5H309C305.962 146.5 303.5 144.038 303.5 141V113C303.5 109.962 305.962 107.5 309 107.5Z"
                stroke="#C5C9D0" shape-rendering="crispEdges" />
            <path d="M320 121L326 127L320 133" stroke="#808080" stroke-width="2"
                stroke-linecap="round" stroke-linejoin="round" />
        </g>
        <rect x="142" y="124" width="45" height="6" rx="3" fill="#0F172A" />
        <rect x="195" y="124" width="45" height="6" rx="3" fill="#D9D9D9" />
        <rect x="248" y="124" width="45" height="6" rx="3" fill="#D9D9D9" />
        <g filter="url(#filter1_d_285_139)">
            <path
                d="M92 113C92 109.686 94.6863 107 98 107H126C129.314 107 132 109.686 132 113V141C132 144.314 129.314 147 126 147H98C94.6863 147 92 144.314 92 141V113Z"
                fill="#F8F9F9" shape-rendering="crispEdges" />
            <path
                d="M98 107.5H126C129.038 107.5 131.5 109.962 131.5 113V141C131.5 144.038 129.038 146.5 126 146.5H98C94.9624 146.5 92.5 144.038 92.5 141V113C92.5 109.962 94.9624 107.5 98 107.5Z"
                stroke="#C5C9D0" shape-rendering="crispEdges" />
            <path d="M115 133L109 127L115 121" stroke="#808080" stroke-width="2"
                stroke-linecap="round" stroke-linejoin="round" />
        </g>
        <circle cx="353.5" cy="96.5" r="8" stroke="#DFDFDF" stroke-opacity="0.5" />
        <g filter="url(#filter2_d_285_139)">
            <path
                d="M303 113C303 109.686 305.686 107 309 107H337C340.314 107 343 109.686 343 113V141C343 144.314 340.314 147 337 147H309C305.686 147 303 144.314 303 141V113Z"
                fill="#F8F9F9" shape-rendering="crispEdges" />
            <path
                d="M309 107.5H337C340.038 107.5 342.5 109.962 342.5 113V141C342.5 144.038 340.038 146.5 337 146.5H309C305.962 146.5 303.5 144.038 303.5 141V113C303.5 109.962 305.962 107.5 309 107.5Z"
                stroke="#C5C9D0" shape-rendering="crispEdges" />
            <path d="M320 121L326 127L320 133" stroke="#808080" stroke-width="2"
                stroke-linecap="round" stroke-linejoin="round" />
        </g>
        <rect x="142" y="124" width="45" height="6" rx="3" fill="#0F172A" />
        <rect x="195" y="124" width="45" height="6" rx="3" fill="#D9D9D9" />
        <rect x="248" y="124" width="45" height="6" rx="3" fill="#D9D9D9" />
        <g filter="url(#filter3_d_285_139)">
            <path
                d="M92 113C92 109.686 94.6863 107 98 107H126C129.314 107 132 109.686 132 113V141C132 144.314 129.314 147 126 147H98C94.6863 147 92 144.314 92 141V113Z"
                fill="#F8F9F9" shape-rendering="crispEdges" />
            <path
                d="M98 107.5H126C129.038 107.5 131.5 109.962 131.5 113V141C131.5 144.038 129.038 146.5 126 146.5H98C94.9624 146.5 92.5 144.038 92.5 141V113C92.5 109.962 94.9624 107.5 98 107.5Z"
                stroke="#C5C9D0" shape-rendering="crispEdges" />
            <path d="M115 133L109 127L115 121" stroke="#808080" stroke-width="2"
                stroke-linecap="round" stroke-linejoin="round" />
        </g>
    </g>
    <defs>
        <filter id="filter0_d_285_139" x="301" y="106" width="44" height="44"
            filterUnits="userSpaceOnUse" color-interpolation-filters="sRGB">
            <feFlood flood-opacity="0" result="BackgroundImageFix" />
            <feColorMatrix in="SourceAlpha" type="matrix"
                values="0 0 0 0 0 0 0 0 0 0 0 0 0 0 0 0 0 0 127 0" result="hardAlpha" />
            <feOffset dy="1" />
            <feGaussianBlur stdDeviation="1" />
            <feComposite in2="hardAlpha" operator="out" />
            <feColorMatrix type="matrix"
                values="0 0 0 0 0.0392157 0 0 0 0 0.0509804 0 0 0 0 0.0705882 0 0 0 0.1 0" />
            <feBlend mode="normal" in2="BackgroundImageFix" result="effect1_dropShadow_285_139" />
            <feBlend mode="normal" in="SourceGraphic" in2="effect1_dropShadow_285_139"
                result="shape" />
        </filter>
        <filter id="filter1_d_285_139" x="90" y="106" width="44" height="44"
            filterUnits="userSpaceOnUse" color-interpolation-filters="sRGB">
            <feFlood flood-opacity="0" result="BackgroundImageFix" />
            <feColorMatrix in="SourceAlpha" type="matrix"
                values="0 0 0 0 0 0 0 0 0 0 0 0 0 0 0 0 0 0 127 0" result="hardAlpha" />
            <feOffset dy="1" />
            <feGaussianBlur stdDeviation="1" />
            <feComposite in2="hardAlpha" operator="out" />
            <feColorMatrix type="matrix"
                values="0 0 0 0 0.0392157 0 0 0 0 0.0509804 0 0 0 0 0.0705882 0 0 0 0.1 0" />
            <feBlend mode="normal" in2="BackgroundImageFix" result="effect1_dropShadow_285_139" />
            <feBlend mode="normal" in="SourceGraphic" in2="effect1_dropShadow_285_139"
                result="shape" />
        </filter>
        <filter id="filter2_d_285_139" x="301" y="106" width="44" height="44"
            filterUnits="userSpaceOnUse" color-interpolation-filters="sRGB">
            <feFlood flood-opacity="0" result="BackgroundImageFix" />
            <feColorMatrix in="SourceAlpha" type="matrix"
                values="0 0 0 0 0 0 0 0 0 0 0 0 0 0 0 0 0 0 127 0" result="hardAlpha" />
            <feOffset dy="1" />
            <feGaussianBlur stdDeviation="1" />
            <feComposite in2="hardAlpha" operator="out" />
            <feColorMatrix type="matrix"
                values="0 0 0 0 0.0392157 0 0 0 0 0.0509804 0 0 0 0 0.0705882 0 0 0 0.1 0" />
            <feBlend mode="normal" in2="BackgroundImageFix" result="effect1_dropShadow_285_139" />
            <feBlend mode="normal" in="SourceGraphic" in2="effect1_dropShadow_285_139"
                result="shape" />
        </filter>
        <filter id="filter3_d_285_139" x="90" y="106" width="44" height="44"
            filterUnits="userSpaceOnUse" color-interpolation-filters="sRGB">
            <feFlood flood-opacity="0" result="BackgroundImageFix" />
            <feColorMatrix in="SourceAlpha" type="matrix"
                values="0 0 0 0 0 0 0 0 0 0 0 0 0 0 0 0 0 0 127 0" result="hardAlpha" />
            <feOffset dy="1" />
            <feGaussianBlur stdDeviation="1" />
            <feComposite in2="hardAlpha" operator="out" />
            <feColorMatrix type="matrix"
                values="0 0 0 0 0.0392157 0 0 0 0 0.0509804 0 0 0 0 0.0705882 0 0 0 0.1 0" />
            <feBlend mode="normal" in2="BackgroundImageFix" result="effect1_dropShadow_285_139" />
            <feBlend mode="normal" in="SourceGraphic" in2="effect1_dropShadow_285_139"
                result="shape" />
        </filter>
        <linearGradient id="paint0_linear_285_139" x1="81.5" y1="2" x2="81.5" y2="255"
            gradientUnits="userSpaceOnUse">
            <stop stop-color="#F5F5F5" />
            <stop offset="0.5" stop-color="#DFDFDF" />
            <stop offset="1" stop-color="#F5F5F5" />
        </linearGradient>
        <linearGradient id="paint1_linear_285_139" x1="440.5" y1="96" x2="440.5" y2="536"
            gradientUnits="userSpaceOnUse">
            <stop stop-color="#F5F5F5" />
            <stop offset="0.5" stop-color="#DFDFDF" />
            <stop offset="1" stop-color="#F5F5F5" />
        </linearGradient>
        <linearGradient id="paint2_linear_285_139" x1="440.5" y1="157" x2="440.5" y2="597"
            gradientUnits="userSpaceOnUse">
            <stop stop-color="#F5F5F5" />
            <stop offset="0.5" stop-color="#DFDFDF" />
            <stop offset="1" stop-color="#F5F5F5" />
        </linearGradient>
        <linearGradient id="paint3_linear_285_139" x1="353.5" y1="7" x2="353.5" y2="260"
            gradientUnits="userSpaceOnUse">
            <stop stop-color="#F5F5F5" />
            <stop offset="0.5" stop-color="#DFDFDF" />
            <stop offset="1" stop-color="#F5F5F5" />
        </linearGradient>
        <clipPath id="clip0_285_139">
            <rect width="440" height="253" fill="white" />
        </clipPath>
        <clipPath id="clip1_285_139">
            <rect width="440" height="253" fill="white" />
        </clipPath>
    </defs>
</svg>