<svg width="440" height="253" viewBox="0 0 440 253" fill="none" xmlns="http://www.w3.org/2000/svg">
    <g clip-path="url(#clip0_101_73)">
        <rect width="440" height="253" fill="#F5F5F5" />
        <rect x="440" y="72" width="1" height="440" transform="rotate(90 440 72)"
            fill="url(#paint0_linear_101_73)" />
        <rect x="440" y="181" width="1" height="440" transform="rotate(90 440 181)"
            fill="url(#paint1_linear_101_73)" />
        <circle cx="102.5" cy="72.5" r="8" stroke="#DFDFDF" stroke-opacity="0.5" />
        <circle cx="102.5" cy="181.5" r="8" stroke="#DFDFDF" stroke-opacity="0.5" />
        <rect x="102" width="1" height="253" fill="url(#paint2_linear_101_73)" />
        <rect x="336" width="1" height="253" fill="url(#paint3_linear_101_73)" />
        <circle cx="336.5" cy="181.5" r="8" stroke="#DFDFDF" stroke-opacity="0.5" />
        <circle cx="336.5" cy="72.5" r="8" stroke="#DFDFDF" stroke-opacity="0.5" />
        <circle cx="125" cy="95" r="12" fill="#0F172A" />
        <circle cx="125" cy="95" r="4" fill="#F5F5F5" />
        <rect x="151" y="88" width="175" height="5" rx="2.5" fill="#18181B" />
        <rect x="151" y="98" width="116" height="4" rx="2" fill="#D9D9D9" />
        <circle cx="125" cy="127" r="12" fill="#71717A" />
        <circle cx="125" cy="127" r="10" fill="#F5F5F5" />
        <rect x="150" y="120" width="175" height="5" rx="2.5" fill="#18181B" />
        <rect x="150" y="130" width="116" height="4" rx="2" fill="#D9D9D9" />
        <circle cx="125" cy="159" r="12" fill="#71717A" />
        <circle cx="125" cy="159" r="10" fill="#F5F5F5" />
        <rect x="151" y="152" width="175" height="5" rx="2.5" fill="#18181B" />
        <rect x="151" y="162" width="116" height="4" rx="2" fill="#D9D9D9" />
    </g>
    <defs>
        <linearGradient id="paint0_linear_101_73" x1="440.5" y1="72" x2="440.5" y2="512"
            gradientUnits="userSpaceOnUse">
            <stop stop-color="#F5F5F5" />
            <stop offset="0.5" stop-color="#DFDFDF" />
            <stop offset="1" stop-color="#F5F5F5" />
        </linearGradient>
        <linearGradient id="paint1_linear_101_73" x1="440.5" y1="181" x2="440.5" y2="621"
            gradientUnits="userSpaceOnUse">
            <stop stop-color="#F5F5F5" />
            <stop offset="0.5" stop-color="#DFDFDF" />
            <stop offset="1" stop-color="#F5F5F5" />
        </linearGradient>
        <linearGradient id="paint2_linear_101_73" x1="102.5" y1="0" x2="102.5" y2="253"
            gradientUnits="userSpaceOnUse">
            <stop stop-color="#F5F5F5" />
            <stop offset="0.5" stop-color="#DFDFDF" />
            <stop offset="1" stop-color="#F5F5F5" />
        </linearGradient>
        <linearGradient id="paint3_linear_101_73" x1="336.5" y1="0" x2="336.5" y2="253"
            gradientUnits="userSpaceOnUse">
            <stop stop-color="#F5F5F5" />
            <stop offset="0.5" stop-color="#DFDFDF" />
            <stop offset="1" stop-color="#F5F5F5" />
        </linearGradient>
        <clipPath id="clip0_101_73">
            <rect width="440" height="253" fill="white" />
        </clipPath>
    </defs>
</svg>