<svg width="440" height="253" viewBox="0 0 440 253" fill="none" xmlns="http://www.w3.org/2000/svg">
    <g clip-path="url(#clip0_68_63)">
        <rect width="440" height="253" fill="#F5F5F5" />
        <rect x="440" y="96" width="1" height="440" transform="rotate(90 440 96)"
            fill="url(#paint0_linear_68_63)" />
        <rect x="440" y="157" width="1" height="440" transform="rotate(90 440 157)"
            fill="url(#paint1_linear_68_63)" />
        <rect x="380" y="7" width="1" height="253" fill="url(#paint2_linear_68_63)" />
        <circle cx="58.5" cy="96.5" r="8" stroke="#DFDFDF" stroke-opacity="0.5" />
        <circle cx="58.5" cy="157.5" r="8" stroke="#DFDFDF" stroke-opacity="0.5" />
        <circle cx="380.5" cy="157.5" r="8" stroke="#DFDFDF" stroke-opacity="0.5" />
        <g filter="url(#filter0_d_68_63)">
            <path
                d="M69 113C69 109.686 71.6863 107 75 107H170V147H71C69.8954 147 69 146.105 69 145V113Z"
                fill="#F8F9F9" shape-rendering="crispEdges" />
            <path
                d="M75 107.5H169.5V146.5H71C70.1716 146.5 69.5 145.828 69.5 145V113C69.5 109.962 71.9624 107.5 75 107.5Z"
                stroke="#C5C9D0" shape-rendering="crispEdges" />
            <rect x="93" y="124" width="54" height="6" rx="3" fill="#0F172A" />
        </g>
        <g filter="url(#filter1_d_68_63)">
            <path
                d="M269 107H364C367.314 107 370 109.686 370 113V145C370 146.105 369.105 147 368 147H269V107Z"
                fill="#F8F9F9" shape-rendering="crispEdges" />
            <path
                d="M364 107.5C367.038 107.5 369.5 109.962 369.5 113V145C369.5 145.828 368.828 146.5 368 146.5H269.5V107.5H364Z"
                stroke="#C5C9D0" shape-rendering="crispEdges" />
            <rect x="293" y="124" width="54" height="6" rx="3" fill="#D9D9D9" />
        </g>
        <g filter="url(#filter2_d_68_63)">
            <path d="M169 107H270V147H169V107Z" fill="#F8F9F9" shape-rendering="crispEdges" />
            <path d="M269.5 107.5V146.5H169.5V107.5H269.5Z" stroke="#C5C9D0"
                shape-rendering="crispEdges" />
            <rect x="193" y="124" width="54" height="6" rx="3" fill="#D9D9D9" />
        </g>
        <rect x="58" y="2" width="1" height="253" fill="url(#paint3_linear_68_63)" />
        <circle cx="380.5" cy="96.5" r="8" stroke="#DFDFDF" stroke-opacity="0.5" />
        <path d="M69 145H170V147H71C69.8954 147 69 146.105 69 145Z" fill="#0F172A" />
    </g>
    <defs>
        <filter id="filter0_d_68_63" x="67" y="106" width="105" height="44"
            filterUnits="userSpaceOnUse" color-interpolation-filters="sRGB">
            <feFlood flood-opacity="0" result="BackgroundImageFix" />
            <feColorMatrix in="SourceAlpha" type="matrix"
                values="0 0 0 0 0 0 0 0 0 0 0 0 0 0 0 0 0 0 127 0" result="hardAlpha" />
            <feOffset dy="1" />
            <feGaussianBlur stdDeviation="1" />
            <feComposite in2="hardAlpha" operator="out" />
            <feColorMatrix type="matrix"
                values="0 0 0 0 0.0392157 0 0 0 0 0.0509804 0 0 0 0 0.0705882 0 0 0 0.1 0" />
            <feBlend mode="normal" in2="BackgroundImageFix" result="effect1_dropShadow_68_63" />
            <feBlend mode="normal" in="SourceGraphic" in2="effect1_dropShadow_68_63" result="shape" />
        </filter>
        <filter id="filter1_d_68_63" x="267" y="106" width="105" height="44"
            filterUnits="userSpaceOnUse" color-interpolation-filters="sRGB">
            <feFlood flood-opacity="0" result="BackgroundImageFix" />
            <feColorMatrix in="SourceAlpha" type="matrix"
                values="0 0 0 0 0 0 0 0 0 0 0 0 0 0 0 0 0 0 127 0" result="hardAlpha" />
            <feOffset dy="1" />
            <feGaussianBlur stdDeviation="1" />
            <feComposite in2="hardAlpha" operator="out" />
            <feColorMatrix type="matrix"
                values="0 0 0 0 0.0392157 0 0 0 0 0.0509804 0 0 0 0 0.0705882 0 0 0 0.1 0" />
            <feBlend mode="normal" in2="BackgroundImageFix" result="effect1_dropShadow_68_63" />
            <feBlend mode="normal" in="SourceGraphic" in2="effect1_dropShadow_68_63" result="shape" />
        </filter>
        <filter id="filter2_d_68_63" x="167" y="106" width="105" height="44"
            filterUnits="userSpaceOnUse" color-interpolation-filters="sRGB">
            <feFlood flood-opacity="0" result="BackgroundImageFix" />
            <feColorMatrix in="SourceAlpha" type="matrix"
                values="0 0 0 0 0 0 0 0 0 0 0 0 0 0 0 0 0 0 127 0" result="hardAlpha" />
            <feOffset dy="1" />
            <feGaussianBlur stdDeviation="1" />
            <feComposite in2="hardAlpha" operator="out" />
            <feColorMatrix type="matrix"
                values="0 0 0 0 0.0392157 0 0 0 0 0.0509804 0 0 0 0 0.0705882 0 0 0 0.1 0" />
            <feBlend mode="normal" in2="BackgroundImageFix" result="effect1_dropShadow_68_63" />
            <feBlend mode="normal" in="SourceGraphic" in2="effect1_dropShadow_68_63" result="shape" />
        </filter>
        <linearGradient id="paint0_linear_68_63" x1="440.5" y1="96" x2="440.5" y2="536"
            gradientUnits="userSpaceOnUse">
            <stop stop-color="#F5F5F5" />
            <stop offset="0.5" stop-color="#DFDFDF" />
            <stop offset="1" stop-color="#F5F5F5" />
        </linearGradient>
        <linearGradient id="paint1_linear_68_63" x1="440.5" y1="157" x2="440.5" y2="597"
            gradientUnits="userSpaceOnUse">
            <stop stop-color="#F5F5F5" />
            <stop offset="0.5" stop-color="#DFDFDF" />
            <stop offset="1" stop-color="#F5F5F5" />
        </linearGradient>
        <linearGradient id="paint2_linear_68_63" x1="380.5" y1="7" x2="380.5" y2="260"
            gradientUnits="userSpaceOnUse">
            <stop stop-color="#F5F5F5" />
            <stop offset="0.5" stop-color="#DFDFDF" />
            <stop offset="1" stop-color="#F5F5F5" />
        </linearGradient>
        <linearGradient id="paint3_linear_68_63" x1="58.5" y1="2" x2="58.5" y2="255"
            gradientUnits="userSpaceOnUse">
            <stop stop-color="#F5F5F5" />
            <stop offset="0.5" stop-color="#DFDFDF" />
            <stop offset="1" stop-color="#F5F5F5" />
        </linearGradient>
        <clipPath id="clip0_68_63">
            <rect width="440" height="253" fill="white" />
        </clipPath>
    </defs>
</svg>